<svg width="39" height="38" viewBox="0 0 39 38" fill="none" xmlns="http://www.w3.org/2000/svg">
<path d="M18.2423 5.4006L19.4998 6.64211L20.7574 5.40068C22.54 3.64095 24.9516 2.60982 27.5145 2.60982C32.8359 2.60982 37.2099 7.00875 37.21 12.4641C37.21 17.139 35.5551 21.3297 31.78 25.7461C30.3197 27.4545 27.5211 29.7568 24.9226 31.7334C22.368 33.6765 20.1614 35.1898 19.9895 35.3074C19.9894 35.3075 19.9893 35.3075 19.9893 35.3076L19.5 35.6422L19.0105 35.3074L19.0104 35.3073C18.8405 35.1911 16.6331 33.6774 14.0774 31.7334C11.4789 29.7569 8.6803 27.4545 7.21998 25.7461C3.44485 21.3297 1.79 17.139 1.79 12.4641C1.79 7.00875 6.16398 2.60982 11.4854 2.60982C14.0484 2.60982 16.4599 3.64085 18.2423 5.4006Z" stroke="#2C80DF" stroke-width="3.58"/>
</svg>
