<svg width="46" height="46" viewBox="0 0 46 46" fill="none" xmlns="http://www.w3.org/2000/svg">
<path d="M44.0316 21.3524H42.5094C41.7929 11.7357 34.0927 4.02661 24.4664 3.30943V1.78716C24.4665 0.976807 23.8094 0.319824 22.999 0.319824C22.1887 0.319824 21.5316 0.976807 21.5316 1.78725V3.30951C11.9141 4.026 4.20572 11.7272 3.48871 21.3524H1.96645C1.15601 21.3524 0.499023 22.0095 0.499023 22.8198C0.499023 23.6302 1.15601 24.2873 1.96645 24.2873H3.48871C4.2052 33.9041 11.9054 41.6131 21.5317 42.3302V43.8525C21.5317 44.6629 22.1887 45.3199 22.9991 45.3199C23.8095 45.3199 24.4665 44.6629 24.4665 43.8525V42.3302C34.0842 41.6138 41.7924 33.9126 42.5095 24.2873H44.0318C44.8421 24.2873 45.4992 23.6303 45.4992 22.8198C45.499 22.0095 44.8421 21.3524 44.0316 21.3524ZM39.564 21.3524H36.6159C36.3294 18.6746 35.2677 16.2253 33.6604 14.2336L35.7444 12.1496C37.8724 14.6875 39.2578 17.8673 39.564 21.3524ZM24.4665 6.25482C27.9516 6.56103 31.1316 7.94636 33.6692 10.0745L31.5852 12.1584C29.5935 10.5512 27.1443 9.48954 24.4665 9.20293V6.25482ZM27.3346 25.0802C27.4668 24.8278 27.5783 24.563 27.6651 24.2873H33.6595C33.4031 26.1591 32.6638 27.8789 31.5713 29.3169L27.3346 25.0802ZM29.4961 31.3921C28.0581 32.4846 26.3383 33.2239 24.4665 33.4803V27.4859C24.7423 27.3991 25.0071 27.2876 25.2594 27.1554L29.4961 31.3921ZM27.6651 21.3524C27.5783 21.0766 27.4668 20.8118 27.3346 20.5595L31.5713 16.3228C32.6638 17.7608 33.4031 19.4806 33.6595 21.3524H27.6651ZM24.4665 12.1594C26.3383 12.4158 28.0581 13.1551 29.4961 14.2476L25.2594 18.4843C25.007 18.3521 24.7422 18.2406 24.4665 18.1537V12.1594ZM21.5316 6.25482V9.20293C18.8538 9.48946 16.4045 10.5512 14.4128 12.1584L12.3288 10.0745C14.8667 7.94636 18.0465 6.56103 21.5316 6.25482ZM18.3329 24.2873C18.4198 24.5631 18.5313 24.8279 18.6635 25.0802L14.4268 29.3169C13.3343 27.8789 12.595 26.1591 12.3386 24.2873H18.3329ZM12.3386 21.3524C12.595 19.4806 13.3343 17.7608 14.4268 16.3228L18.6634 20.5595C18.5313 20.8119 18.4198 21.0767 18.3329 21.3524H12.3386ZM16.502 14.2476C17.94 13.1551 19.6598 12.4158 21.5316 12.1594V18.1537C21.2558 18.2406 20.991 18.3521 20.7387 18.4843L16.502 14.2476ZM10.2537 12.1496L12.3376 14.2336C10.7304 16.2254 9.66874 18.6746 9.38213 21.3524H6.43402C6.74023 17.8673 8.12556 14.6873 10.2537 12.1496ZM6.43402 24.2873H9.38213C9.66866 26.9651 10.7304 29.4144 12.3376 31.406L10.2537 33.49C8.12556 30.9522 6.74023 27.7724 6.43402 24.2873ZM21.5316 39.3848C18.0465 39.0786 14.8665 37.6933 12.3288 35.5652L14.4128 33.4812C16.4046 35.0885 18.8538 36.1501 21.5316 36.4367V39.3848ZM21.5316 33.4803C19.6598 33.2239 17.94 32.4846 16.502 31.3921L20.7387 27.1554C20.9911 27.2876 21.2559 27.3991 21.5316 27.4859V33.4803ZM22.999 24.7764C21.9208 24.7764 21.0425 23.8979 21.0425 22.8198C21.0425 21.7416 21.921 20.8633 22.999 20.8633C24.0773 20.8633 24.9556 21.7418 24.9556 22.8198C24.9556 23.8981 24.0771 24.7764 22.999 24.7764ZM24.4665 39.3848V36.4367C27.1443 36.1502 29.5936 35.0885 31.5852 33.4812L33.6692 35.5652C31.1314 37.6933 27.9516 39.0786 24.4665 39.3848ZM35.7444 33.49L33.6604 31.406C35.2677 29.4142 36.3293 26.9651 36.6159 24.2872H39.564C39.2578 27.7724 37.8725 30.9524 35.7444 33.49Z" fill="#2C80DF"/>
</svg>
