<svg width="40" height="37" viewBox="0 0 40 37" fill="none" xmlns="http://www.w3.org/2000/svg">
<path d="M18.9236 0.694824C8.81757 0.694824 0.625 8.80971 0.625 18.8198C0.625 28.8299 8.81757 36.9448 18.9236 36.9448C24.5741 36.9448 29.6273 34.4011 32.9839 30.4145C30.7907 31.8287 28.194 32.6801 25.3819 32.6801C17.6538 32.6801 11.3889 26.4748 11.3889 18.8198C11.3889 11.1649 17.6538 4.95953 25.3819 4.95953C28.194 4.95953 30.7907 5.81098 32.9839 7.22516C29.6273 3.23851 24.5741 0.694824 18.9236 0.694824ZM29.6875 9.22424L27.5347 15.6213H20L26.4583 19.886L23.2292 27.3492L29.6875 23.0845L36.1458 27.3492L32.9167 19.886L39.375 15.6213H31.8403L29.6875 9.22424Z" fill="#2C80DF"/>
</svg>
