<svg width="153" height="50" viewBox="0 0 153 50" fill="none" xmlns="http://www.w3.org/2000/svg">
<path d="M152.812 43.2337C152.812 46.9537 149.795 50 146.046 50H6.76626C3.04628 50 0 46.983 0 43.2337V6.76625C0 3.04627 3.01699 0 6.76626 0H146.075C149.795 0 152.841 3.01698 152.841 6.76625V43.2337H152.812Z" fill="black"/>
<path d="M39.8651 33.0403C39.0449 34.827 38.6642 35.6472 37.639 37.2289C36.1744 39.455 34.124 42.2084 31.605 42.2084C29.3496 42.2377 28.7638 40.7439 25.7175 40.7439C22.6712 40.7731 22.0268 42.2084 19.7714 42.2084C17.223 42.1791 15.2898 39.6894 13.8253 37.4925C9.7538 31.3121 9.34372 24.0479 11.8335 20.1815C13.6202 17.4281 16.4322 15.8464 19.0684 15.8464C21.7632 15.8464 23.4621 17.3109 25.6882 17.3109C27.8557 17.3109 29.1738 15.8464 32.2787 15.8464C34.622 15.8464 37.1117 17.1352 38.8985 19.332C33.0403 22.5248 33.9776 30.8142 39.8651 33.0403Z" fill="white"/>
<path d="M29.8764 13.3567C31.0187 11.8922 31.8682 9.87111 31.546 7.76215C29.7006 7.87931 27.5331 9.05095 26.2735 10.6034C25.1312 11.9801 24.1939 14.0597 24.5454 16.0515C26.5665 16.1101 28.6461 14.9092 29.8764 13.3567Z" fill="white"/>
<path d="M52.2255 20.0938L46.3966 37.2291H49.0621L50.7903 31.9567H56.4142L58.2009 37.2291H60.9543L55.0961 20.0938H52.2255ZM53.6022 22.9058C53.8073 23.6673 54.0123 24.4582 54.2759 25.3369L55.8576 29.8771H51.4054L52.9578 25.3076C53.1922 24.5461 53.3972 23.7552 53.6022 22.9058Z" fill="white"/>
<path d="M68.5116 24.5461C66.7542 24.5461 65.3189 25.2198 64.3816 26.5379L64.2644 24.839H61.8918V25.044C61.9504 26.0985 61.9797 27.2702 61.9797 28.9398V42.1501H64.5866V35.9989C65.3775 36.9655 66.6663 37.5221 68.1309 37.5221C69.654 37.5221 71.0307 36.9362 72.0559 35.8525C73.1982 34.6515 73.7841 32.9234 73.7841 30.873C73.7841 29.0569 73.2568 27.4752 72.2902 26.3328C71.3529 25.1612 70.0055 24.5461 68.5116 24.5461ZM67.8672 26.6843C70.1812 26.6843 71.2064 28.8226 71.2064 30.9608C71.2064 33.6849 69.8883 35.3838 67.7501 35.3838C66.2855 35.3838 65.0553 34.3879 64.7038 32.9819C64.6452 32.7476 64.6159 32.484 64.6159 32.1325V30.0528C64.6159 29.8771 64.6452 29.6427 64.7038 29.4084C64.7038 29.3498 64.7331 29.262 64.7331 29.2034C65.1139 27.7095 66.4027 26.6843 67.8672 26.6843Z" fill="white"/>
<path d="M81.868 24.546C80.1105 24.546 78.6752 25.2197 77.7379 26.5378L77.6208 24.8389H75.2482V25.0439C75.3068 26.0984 75.336 27.27 75.336 28.9396V42.1499H77.943V35.9988C78.7338 36.9654 80.0226 37.5219 81.4872 37.5219C83.0103 37.5219 84.387 36.9361 85.4122 35.8523C86.5546 34.6514 87.1404 32.9232 87.1404 30.8729C87.1404 29.0568 86.6131 27.4751 85.6465 26.3327C84.7092 25.1611 83.3618 24.546 81.868 24.546ZM81.2236 26.6842C83.5376 26.6842 84.5628 28.8225 84.5628 30.9607C84.5628 33.6848 83.2447 35.3837 81.1064 35.3837C79.6711 35.3837 78.4116 34.3878 78.0601 32.9818C78.0015 32.7475 77.9722 32.4839 77.9722 32.1324V30.0527C77.9722 29.8769 78.0015 29.6426 78.0601 29.4083C78.0601 29.3497 78.0894 29.2618 78.0894 29.2033C78.4702 27.7094 79.759 26.6842 81.2236 26.6842Z" fill="white"/>
<path d="M98.5936 27.358C96.1625 26.4206 95.4009 25.6884 95.4009 24.3117C95.4009 23.1693 96.3089 21.9977 98.3593 21.9977C100.029 21.9977 101.113 22.5835 101.406 22.7593L101.64 22.9057L102.372 20.7382L102.226 20.6503C101.786 20.3867 100.556 19.8008 98.4472 19.8008C95.1373 19.8008 92.8233 21.7634 92.8233 24.546C92.8233 26.8014 94.2585 28.3832 97.3634 29.4962C99.5602 30.3164 100.38 31.1658 100.38 32.6011C100.38 34.2414 99.1209 35.2373 97.0705 35.2373C95.7524 35.2373 94.3757 34.8565 93.3212 34.1828L93.0869 34.0363L92.3839 36.2625L92.5011 36.3503C93.4677 36.9947 95.313 37.4634 96.8947 37.4634C101.347 37.4634 102.929 34.7393 102.929 32.4253C102.958 30.0527 101.699 28.5882 98.5936 27.358Z" fill="white"/>
<path d="M107.615 21.8514L105.067 22.6422V24.8098H103.193V26.8895H105.067V33.2456C105.067 34.7688 105.36 35.8526 105.975 36.5262C106.561 37.1707 107.44 37.5221 108.494 37.5221C109.461 37.5221 110.164 37.3171 110.486 37.2L110.632 37.1414L110.515 35.0617L110.281 35.1496C109.959 35.2374 109.607 35.296 109.08 35.296C108.084 35.296 107.645 34.6516 107.645 33.1578V26.8895H110.779V24.8098H107.645V21.8514H107.615Z" fill="white"/>
<path d="M117.193 24.5461C113.561 24.5461 111.042 27.2409 111.042 31.1366C111.042 34.8859 113.503 37.5221 117.018 37.5221H117.047C120.005 37.5221 123.198 35.4424 123.198 30.9023C123.198 29.0569 122.642 27.4752 121.558 26.3036C120.415 25.1612 118.922 24.5461 117.193 24.5461ZM117.105 26.5672C119.449 26.5672 120.503 28.8519 120.503 30.9608C120.503 33.5678 119.068 35.4424 117.047 35.4424H117.018C115.055 35.4424 113.62 33.597 113.62 31.0194C113.649 28.8226 114.704 26.5672 117.105 26.5672Z" fill="white"/>
<path d="M131.106 24.6631L130.96 24.6338C130.726 24.5752 130.55 24.546 130.315 24.546C128.968 24.546 127.738 25.3368 127.064 26.6256L126.976 24.8096H124.662L124.692 25.0146C124.75 26.0398 124.779 27.1822 124.779 28.7346L124.75 37.1997H127.357V30.5799C127.357 30.2284 127.386 29.877 127.416 29.584C127.709 28.0023 128.792 26.9771 130.14 26.9771C130.403 26.9771 130.608 27.0064 130.843 27.0064L131.106 27.0357V24.6631Z" fill="white"/>
<path d="M136.935 24.5168C133.479 24.5168 131.077 27.2702 131.077 31.2245C131.077 35.0323 133.479 37.4928 137.199 37.4928C139.162 37.4928 140.509 37.0534 141.3 36.7019L141.446 36.6433L140.948 34.7101L140.743 34.798C140.04 35.0909 139.103 35.3838 137.492 35.3838C136.379 35.3838 133.772 35.003 133.596 31.6345L141.973 31.6638L142.003 31.4881C142.061 31.2245 142.091 30.873 142.091 30.4043C142.091 27.6802 140.743 24.5168 136.935 24.5168ZM136.76 26.4793C137.55 26.4793 138.195 26.7136 138.664 27.2116C139.396 27.9731 139.542 29.0862 139.542 29.6134H133.625C133.889 28.1196 134.826 26.4793 136.76 26.4793Z" fill="white"/>
<path d="M46.3966 8.37709C47.1289 8.28922 47.949 8.20135 48.8864 8.20135C50.5559 8.20135 51.7569 8.55285 52.5477 9.19725C53.3679 9.87095 53.8366 10.8083 53.8366 12.1264C53.8366 13.4445 53.3679 14.5282 52.5477 15.2898C51.6983 16.0514 50.2923 16.4615 48.5641 16.4615C47.7147 16.4615 47.041 16.4322 46.4259 16.3736V8.37709H46.3966ZM47.5975 15.5827C47.8905 15.6413 48.3298 15.6413 48.7692 15.6413C51.2589 15.6413 52.6063 14.3818 52.6063 12.2142C52.6063 10.281 51.4054 9.08009 48.9449 9.08009C48.3298 9.08009 47.8905 9.13867 47.5683 9.19725V15.5827H47.5975Z" fill="white"/>
<path d="M57.9966 16.52C56.2684 16.52 54.8917 15.3776 54.8917 13.5323C54.8917 11.5698 56.327 10.4274 58.1138 10.4274C59.9591 10.4274 61.2186 11.6284 61.2186 13.4151C61.2186 15.5827 59.549 16.52 57.9966 16.52ZM58.0552 15.7291C59.1682 15.7291 60.0177 14.7918 60.0177 13.4444C60.0177 12.4485 59.4611 11.2183 58.0845 11.2183C56.7078 11.2183 56.0927 12.3607 56.0927 13.4737C56.0927 14.7625 56.8835 15.7291 58.0552 15.7291Z" fill="white"/>
<path d="M63.0928 10.5738L63.9715 13.5322C64.1473 14.1767 64.323 14.7918 64.4402 15.4069H64.4695C64.6159 14.8211 64.821 14.2059 65.0553 13.5615L66.1098 10.6031H67.1057L68.1016 13.503C68.3359 14.1767 68.5409 14.8211 68.6874 15.4069H68.7167C68.8338 14.8211 69.0096 14.2059 69.2146 13.503L70.1227 10.5738H71.2943L69.2146 16.4028H68.1309L67.135 13.6201C66.9006 12.9464 66.7249 12.3899 66.5491 11.6869H66.5198C66.3734 12.3899 66.1683 13.005 65.934 13.6201L64.8795 16.3735H63.8251L61.8625 10.5446H63.0928V10.5738Z" fill="white"/>
<path d="M72.4659 12.1262C72.4659 11.5111 72.4659 11.0425 72.4073 10.5445H73.4618L73.5204 11.4818H73.5497C73.8719 10.9546 74.6335 10.3981 75.688 10.3981C76.596 10.3981 77.9727 10.8667 77.9727 12.8878V16.3735H76.801V13.005C76.801 12.0677 76.4202 11.2768 75.3072 11.2768C74.5456 11.2768 73.9305 11.7747 73.7255 12.3606C73.6669 12.507 73.6376 12.6828 73.6376 12.8585V16.3735H72.4659V12.1262Z" fill="white"/>
<path d="M79.8771 7.84979H81.0487V16.4028H79.8771V7.84979Z" fill="white"/>
<path d="M85.6469 16.5199C83.9187 16.5199 82.542 15.3776 82.542 13.5322C82.542 11.5697 83.9773 10.4274 85.764 10.4274C87.6094 10.4274 88.8689 11.6283 88.8689 13.4151C88.8689 15.5826 87.1993 16.5199 85.6469 16.5199ZM85.6761 15.7291C86.7892 15.7291 87.6387 14.7918 87.6387 13.4444C87.6387 12.4485 87.0821 11.2182 85.7054 11.2182C84.3288 11.2182 83.7136 12.3606 83.7136 13.4737C83.7429 14.7625 84.5338 15.7291 85.6761 15.7291Z" fill="white"/>
<path d="M94.9024 14.9969C94.9024 15.4948 94.9317 15.9928 94.9903 16.4028H93.9358L93.8187 15.6706H93.7894C93.4379 16.1392 92.7349 16.5493 91.7976 16.5493C90.4795 16.5493 89.8058 15.7291 89.8058 14.8797C89.8058 13.4737 91.1825 12.7122 93.7015 12.7122V12.595C93.7015 12.1263 93.555 11.2476 92.2369 11.2476C91.6218 11.2476 91.0067 11.3941 90.5381 11.687L90.2744 10.984C90.8017 10.6911 91.5925 10.486 92.4127 10.486C94.4045 10.486 94.8732 11.687 94.8732 12.8586V14.9969H94.9024ZM93.7601 13.4151C92.4713 13.3858 91.0067 13.5909 91.0067 14.7332C91.0067 15.4362 91.5047 15.7584 92.0905 15.7584C92.9399 15.7584 93.4965 15.2898 93.6722 14.7918C93.7015 14.6747 93.7308 14.5575 93.7308 14.4403V13.4151H93.7601Z" fill="white"/>
<path d="M102.372 7.84979V14.8797C102.372 15.4069 102.372 15.9927 102.431 16.3735H101.376L101.318 15.3483H101.288C100.937 15.9927 100.146 16.4907 99.0914 16.4907C97.5389 16.4907 96.3087 15.2897 96.3087 13.5323C96.3087 11.5698 97.6561 10.3981 99.2085 10.3981C100.204 10.3981 100.878 10.8082 101.171 11.2769H101.2V7.84979H102.372ZM101.2 12.9465C101.2 12.8 101.2 12.6242 101.142 12.4778C100.966 11.8041 100.322 11.2769 99.4429 11.2769C98.2126 11.2769 97.5097 12.2435 97.5097 13.503C97.5097 14.7039 98.1541 15.6705 99.4136 15.6705C100.204 15.6705 100.937 15.2019 101.142 14.411C101.171 14.2646 101.2 14.1181 101.2 13.9423V12.9465Z" fill="white"/>
<path d="M109.812 16.5199C108.084 16.5199 106.707 15.3776 106.707 13.5322C106.707 11.5697 108.142 10.4274 109.929 10.4274C111.774 10.4274 113.034 11.6283 113.034 13.4151C113.034 15.5826 111.364 16.5199 109.812 16.5199ZM109.841 15.7291C110.954 15.7291 111.804 14.7918 111.804 13.4444C111.804 12.4485 111.247 11.2182 109.87 11.2182C108.494 11.2182 107.879 12.3606 107.879 13.4737C107.879 14.7625 108.699 15.7291 109.841 15.7291Z" fill="white"/>
<path d="M114.498 12.1263C114.498 11.5112 114.498 11.0425 114.44 10.5446H115.494L115.553 11.4819H115.582C115.904 10.9547 116.666 10.3981 117.72 10.3981C118.628 10.3981 120.005 10.8668 120.005 12.8879V16.3735H118.833V13.005C118.833 12.0677 118.452 11.2769 117.339 11.2769C116.578 11.2769 115.963 11.7748 115.758 12.3606C115.699 12.5071 115.67 12.6828 115.67 12.8586V16.3735H114.498V12.1263Z" fill="white"/>
<path d="M126.185 9.16791V10.5739H127.884V11.394H126.185V14.5282C126.185 15.2605 126.42 15.6705 127.064 15.6705C127.386 15.6705 127.562 15.6413 127.738 15.612L127.796 16.4321C127.562 16.4907 127.21 16.5786 126.742 16.5786C126.185 16.5786 125.746 16.4028 125.482 16.1392C125.16 15.817 125.014 15.2898 125.014 14.6161V11.3647H124.018V10.5446H125.014V9.46082L126.185 9.16791Z" fill="white"/>
<path d="M129.203 7.84979H130.375V11.4819H130.404C130.58 11.189 130.873 10.8961 131.254 10.7496C131.605 10.5446 132.015 10.4567 132.455 10.4567C133.333 10.4567 134.71 10.9254 134.71 12.9465V16.4028H133.538V13.0636C133.538 12.1263 133.158 11.3354 132.044 11.3354C131.283 11.3354 130.697 11.8041 130.463 12.3899C130.404 12.5364 130.375 12.6828 130.375 12.8879V16.4028H129.203V7.84979Z" fill="white"/>
<path d="M137.287 13.6494C137.316 15.0846 138.312 15.6705 139.484 15.6705C140.333 15.6705 140.861 15.524 141.271 15.3776L141.476 16.1098C141.066 16.2856 140.333 16.4906 139.308 16.4906C137.316 16.4906 136.115 15.2897 136.115 13.5615C136.115 11.804 137.287 10.3981 139.162 10.3981C141.271 10.3981 141.827 12.0677 141.827 13.1514C141.827 13.3565 141.827 13.5322 141.798 13.6494H137.287ZM140.714 12.8878C140.714 12.2141 140.392 11.1596 139.103 11.1596C137.902 11.1596 137.404 12.1555 137.287 12.8878H140.714Z" fill="white"/>
</svg>
