<svg width="40" height="40" viewBox="0 0 40 40" fill="none" xmlns="http://www.w3.org/2000/svg">
<g clip-path="url(#clip0_602_186)">
<path d="M20 40C31.0457 40 40 31.0457 40 20C40 8.9543 31.0457 0 20 0C8.9543 0 0 8.9543 0 20C0 31.0457 8.9543 40 20 40Z" fill="#2C80DF"/>
<path d="M32.7475 20.0206C30.0328 20.0515 27.6549 21.4948 26.3396 23.6186C26.1713 22.866 25.9609 22.134 25.7083 21.4124C27.2971 19.5773 29.612 18.3608 32.2109 18.1856C31.9899 17.5979 31.7163 17.0412 31.4112 16.5052C28.907 16.8247 26.6658 17.9588 24.9613 19.6289C24.6772 19.0412 24.351 18.4639 24.0038 17.9072C25.7294 16.3711 27.8653 15.2783 30.2327 14.8041C29.8013 14.2784 29.3173 13.7938 28.8018 13.3402C26.6132 13.9588 24.6351 15.0309 22.9726 16.4536C22.5939 15.9691 22.194 15.4948 21.7626 15.0412C23.2673 13.7423 25.0139 12.7113 26.9289 12.0103C26.2555 11.6082 25.54 11.2784 24.7824 11C23.2146 11.7423 21.7626 12.6907 20.479 13.8144C19.1953 12.6907 17.7433 11.7423 16.1755 11C15.4285 11.268 14.713 11.6082 14.029 12.0103C15.944 12.7113 17.6907 13.7526 19.1953 15.0412C18.7744 15.4948 18.3641 15.9588 17.9853 16.4536C16.3439 15.0309 14.3657 13.9588 12.1877 13.3505C11.6721 13.8041 11.1987 14.2887 10.7567 14.8144C13.1242 15.2887 15.2601 16.3814 16.9857 17.9175C16.6385 18.4742 16.3123 19.0515 16.0282 19.6392C14.3342 17.9691 12.0825 16.8351 9.57828 16.5155C9.27315 17.0515 8.99958 17.6186 8.77862 18.1959C11.3775 18.3711 13.6923 19.5876 15.2811 21.4227C15.0286 22.134 14.8182 22.8763 14.6498 23.6289C13.3346 21.4948 10.9567 20.0619 8.242 20.0309C8.11574 20.5979 8.04209 21.1856 8 21.7835C8.04209 21.7835 8.0947 21.7835 8.13678 21.7835C11.346 21.7835 13.9554 24.3402 13.9554 27.4845C13.9554 27.6598 13.9449 27.8351 13.9343 28H16.0387C16.0282 27.8144 16.0282 27.6392 16.0282 27.4536C16.0282 26.0309 16.2176 24.6495 16.5543 23.3402C17.154 24.5567 17.5013 25.9072 17.5013 27.3505C17.5013 27.567 17.4907 27.7835 17.4802 28H19.7003C19.6898 27.8247 19.6898 27.6495 19.6898 27.4639C19.6898 25.8969 19.9739 24.3918 20.5 23C21.0261 24.3918 21.3102 25.8969 21.3102 27.4639C21.3102 27.6392 21.3102 27.8247 21.2997 28H23.5198C23.5093 27.7835 23.4987 27.567 23.4987 27.3505C23.4987 25.9175 23.8354 24.5567 24.4457 23.3402C24.7929 24.6598 24.9718 26.0309 24.9718 27.4536C24.9718 27.6392 24.9718 27.8144 24.9613 28H27.0657C27.0446 27.8247 27.0446 27.6598 27.0446 27.4845C27.0446 24.3402 29.654 21.7835 32.8632 21.7835C32.9053 21.7835 32.9579 21.7835 33 21.7835C32.9474 21.1856 32.8632 20.5979 32.7475 20.0206ZM18.5008 23.3196C18.1852 22.5464 17.7854 21.8144 17.3013 21.134C17.5854 20.4742 17.9011 19.8351 18.2694 19.2268C18.7113 19.7526 19.1216 20.3093 19.4794 20.9072C19.0795 21.6701 18.7534 22.4845 18.5008 23.3196ZM20.4895 19.2165C20.1212 18.6907 19.7214 18.1856 19.2795 17.7113C19.6582 17.2165 20.0581 16.732 20.4895 16.2783C20.9209 16.732 21.3207 17.2062 21.6995 17.7113C21.2576 18.1856 20.8577 18.6804 20.4895 19.2165ZM22.4781 23.3196C22.2256 22.4845 21.8994 21.6701 21.4996 20.9072C21.8573 20.3196 22.2572 19.7526 22.7096 19.2268C23.0673 19.8351 23.3935 20.4742 23.6776 21.134C23.1936 21.8144 22.7938 22.5464 22.4781 23.3196Z" fill="white"/>
</g>
<defs>
<clipPath id="clip0_602_186">
<rect width="40" height="40" fill="white"/>
</clipPath>
</defs>
</svg>
