<svg width="30" height="30" viewBox="0 0 30 30" fill="none" xmlns="http://www.w3.org/2000/svg">
<path d="M15 0C6.71563 0 0 6.71563 0 15C0 23.2844 6.71563 30 15 30C23.2844 30 30 23.2844 30 15C30 6.71563 23.2844 0 15 0Z" fill="#1F67A9"/>
<path d="M22.032 9.11011H8.01953C7.32953 9.11011 6.76953 9.67011 6.76953 10.3601V19.6401C6.76953 20.3301 7.32953 20.8901 8.01953 20.8901H22.032C22.722 20.8901 23.282 20.3301 23.282 19.6401V10.3601C23.282 9.67011 22.722 9.11011 22.032 9.11011ZM20.882 17.6132C20.882 18.3032 20.322 18.8632 19.632 18.8632H10.0439C9.35391 18.8632 8.79391 18.3032 8.79391 17.6132V12.552C8.79391 12.552 8.80203 12.1151 9.59391 12.552C9.60328 12.557 9.60828 12.5589 9.61703 12.5632C10.897 13.2945 12.3433 13.987 14.4189 14.8551C14.5595 14.9026 14.8533 14.9582 15.2795 14.8501C17.3402 14.2414 19.0789 13.4214 20.4039 12.6701L20.4045 12.6707C20.4045 12.6707 20.882 12.382 20.882 12.6707V17.6132Z" fill="white"/>
</svg>
