<svg width="153" height="50" viewBox="0 0 153 50" fill="none" xmlns="http://www.w3.org/2000/svg">
<path d="M152.869 43.2457C152.869 46.9815 149.851 50 146.115 50H6.75433C3.01853 50 0 46.9815 0 43.2457V6.75433C0 3.01853 3.01853 0 6.75433 0H146.115C149.851 0 152.869 3.01853 152.869 6.75433V43.2457Z" fill="black"/>
<path d="M11.4764 9.62329V26.5689V43.4846L28.5416 26.5689L11.4764 9.62329Z" fill="url(#paint0_linear_370_35115)"/>
<path d="M33.1142 21.9964L26.2403 18.0215L11.4764 9.50385V9.62339L28.5416 26.569L33.1142 21.9964Z" fill="url(#paint1_linear_370_35115)"/>
<path d="M11.4764 43.4848V43.6044L26.2403 35.0867L33.1142 31.1118L28.5416 26.5691L11.4764 43.4848Z" fill="url(#paint2_linear_370_35115)"/>
<path d="M33.1135 21.9963L28.5409 26.5689L33.1135 31.1116L41.0035 26.5689L33.1135 21.9963Z" fill="url(#paint3_linear_370_35115)"/>
<path d="M118.978 33.1742C118.35 33.1742 117.752 33.0547 117.214 32.8156C116.676 32.5765 116.228 32.2179 115.869 31.7098H115.75C115.81 32.2776 115.869 32.8156 115.869 33.3536V37.4181H114.375V23.1623H115.6L115.81 24.5072H115.869C116.258 23.9692 116.706 23.5807 117.214 23.3416C117.722 23.1025 118.32 22.983 118.978 22.983C120.293 22.983 121.279 23.4313 121.996 24.3279C122.713 25.2245 123.072 26.4797 123.072 28.0936C123.072 29.7074 122.713 30.9626 121.996 31.8592C121.249 32.7259 120.233 33.1742 118.978 33.1742ZM118.738 24.2382C117.722 24.2382 117.005 24.5072 116.557 25.075C116.108 25.6429 115.869 26.5096 115.869 27.7349V28.0637C115.869 29.4384 116.108 30.4247 116.557 31.0224C117.005 31.6201 117.752 31.919 118.768 31.919C119.605 31.919 120.293 31.5604 120.771 30.873C121.249 30.1856 121.488 29.2292 121.488 28.0338C121.488 26.8084 121.249 25.8521 120.771 25.1946C120.293 24.567 119.635 24.2382 118.738 24.2382Z" fill="#F9F9F9"/>
<path d="M126.509 32.9949H125.015V19.0081H126.509V32.9949Z" fill="#F9F9F9"/>
<path d="M135.086 32.995L134.787 31.5903H134.727C134.249 32.2179 133.741 32.6363 133.263 32.8456C132.785 33.0548 132.157 33.1743 131.44 33.1743C130.454 33.1743 129.706 32.9352 129.139 32.4271C128.571 31.9191 128.302 31.2018 128.302 30.2753C128.302 28.2729 129.886 27.2568 133.084 27.1372L134.757 27.0775V26.4797C134.757 25.7027 134.578 25.1349 134.249 24.7762C133.92 24.4176 133.382 24.2383 132.665 24.2383C131.858 24.2383 130.902 24.4774 129.886 24.9854L129.437 23.8497C129.916 23.5808 130.454 23.3716 131.021 23.2221C131.589 23.0727 132.187 22.983 132.755 22.983C133.92 22.983 134.787 23.252 135.355 23.7601C135.923 24.2681 136.192 25.105 136.192 26.2705V32.995H135.086ZM131.709 31.949C132.635 31.949 133.353 31.68 133.891 31.1719C134.428 30.6638 134.697 29.9466 134.697 29.0201V28.1235L133.203 28.1833C132.008 28.2132 131.171 28.4224 130.633 28.7511C130.095 29.0799 129.856 29.5879 129.856 30.2753C129.856 30.8133 130.005 31.2317 130.334 31.5007C130.663 31.7995 131.111 31.949 131.709 31.949Z" fill="#F9F9F9"/>
<path d="M137.06 23.1622H138.644L140.795 28.7809C141.274 30.066 141.572 30.9925 141.662 31.5603H141.722C141.812 31.2615 141.961 30.7235 142.2 30.0062C142.439 29.2591 143.276 26.9877 144.651 23.1921H146.265L142.051 34.3696C141.632 35.4754 141.154 36.2525 140.586 36.7307C140.018 37.2089 139.331 37.4181 138.524 37.4181C138.076 37.4181 137.627 37.3583 137.179 37.2686V36.0732C137.508 36.1329 137.867 36.1927 138.285 36.1927C139.301 36.1927 140.048 35.6249 140.467 34.4593L141.005 33.0546L137.06 23.1622Z" fill="#F9F9F9"/>
<path d="M91.3337 24.0586C91.8119 24.4471 92.7981 25.2839 92.7981 26.838C92.7981 28.3622 91.9314 29.0795 91.0647 29.7669C90.7957 30.0358 90.4968 30.3347 90.4968 30.783C90.4968 31.2313 90.7957 31.4704 91.0348 31.6796L91.782 32.2474C92.6786 33.0245 93.5154 33.7119 93.5154 35.1464C93.5154 37.089 91.6325 39.0317 88.1059 39.0317C85.1173 39.0317 83.6827 37.5971 83.6827 36.0729C83.6827 35.3257 84.0414 34.2797 85.2667 33.5624C86.5518 32.7854 88.2852 32.6659 89.2117 32.6061C88.9129 32.2474 88.5841 31.8589 88.5841 31.2014C88.5841 30.8428 88.6738 30.6336 88.7933 30.3945C88.5542 30.4244 88.345 30.4244 88.1358 30.4244C85.9541 30.4244 84.7288 28.8105 84.7288 27.1966C84.7288 26.2403 85.1472 25.1942 86.0438 24.4471C87.2093 23.4907 88.614 23.3114 89.7198 23.3114H93.9637L92.6487 24.0586H91.3337ZM89.8692 33.2038C89.6899 33.1739 89.6003 33.1739 89.391 33.1739C89.2117 33.1739 88.1059 33.2038 87.2392 33.5027C86.7909 33.6521 85.4759 34.1602 85.4759 35.6246C85.4759 37.089 86.9105 38.1351 89.0922 38.1351C91.0647 38.1351 92.1107 37.1787 92.1107 35.9235C92.1107 34.8774 91.4532 34.3096 89.8692 33.2038ZM90.467 29.2887C90.9451 28.8105 90.975 28.153 90.975 27.7944C90.975 26.3 90.0784 23.9988 88.3749 23.9988C87.837 23.9988 87.2691 24.2678 86.9404 24.6862C86.5817 25.1046 86.4921 25.6724 86.4921 26.2104C86.4921 27.5852 87.299 29.8864 89.0623 29.8864C89.6003 29.8864 90.1382 29.6174 90.467 29.2887Z" fill="#F9F9F9"/>
<path d="M78.3619 32.875C75.1042 32.875 73.3409 30.3346 73.3409 28.0334C73.3409 25.3436 75.5525 23.0424 78.6607 23.0424C81.6793 23.0424 83.5621 25.4034 83.5621 27.884C83.592 30.3048 81.7091 32.875 78.3619 32.875ZM80.9321 31.2014C81.4402 30.5439 81.5597 29.707 81.5597 28.93C81.5597 27.1069 80.693 23.67 78.1527 23.67C77.4653 23.67 76.8078 23.939 76.2997 24.3574C75.4928 25.0746 75.3433 25.9712 75.3433 26.8678C75.3433 28.9001 76.3595 32.2474 78.84 32.2474C79.647 32.2773 80.4539 31.8589 80.9321 31.2014Z" fill="#F9F9F9"/>
<path d="M67.2144 32.875C63.9568 32.875 62.1935 30.3346 62.1935 28.0334C62.1935 25.3436 64.4051 23.0424 67.5133 23.0424C70.5318 23.0424 72.4146 25.4034 72.4146 27.884C72.4445 30.3048 70.5617 32.875 67.2144 32.875ZM69.7846 31.2014C70.2927 30.5439 70.4123 29.707 70.4123 28.93C70.4123 27.1069 69.5455 23.67 67.0052 23.67C66.3178 23.67 65.6603 23.939 65.1522 24.3574C64.3453 25.0746 64.1959 25.9712 64.1959 26.8678C64.1959 28.9001 65.212 32.2474 67.6926 32.2474C68.4995 32.2773 69.3065 31.8589 69.7846 31.2014Z" fill="#F9F9F9"/>
<path d="M60.6399 32.5462L57.6811 33.2336C56.4856 33.4129 55.4097 33.5922 54.2741 33.5922C48.5657 33.5922 46.384 29.4081 46.384 26.1206C46.384 22.1158 49.4623 18.38 54.7224 18.38C55.8281 18.38 56.9041 18.5593 57.8903 18.8283C59.4444 19.2766 60.1617 19.7847 60.61 20.1134L58.9065 21.7572L58.1892 21.9365L58.6972 21.0997C57.98 20.4123 56.7247 19.1571 54.2741 19.1571C51.0164 19.1571 48.5359 21.6376 48.5359 25.2539C48.5359 29.1391 51.3452 32.7853 55.858 32.7853C57.173 32.7853 57.8604 32.5163 58.488 32.2772V28.9299L55.3799 29.1092L57.0236 28.2126H61.4169L60.879 28.7207C60.7295 28.8403 60.6996 28.9 60.6697 29.0495C60.6399 29.2288 60.6399 29.8265 60.6399 30.0357V32.5462Z" fill="#F9F9F9"/>
<path d="M97.8788 31.9485C97.1914 31.8887 97.042 31.7692 97.042 30.9622V30.7232V19.2767C97.042 19.2468 97.042 19.187 97.042 19.1571C97.1316 18.4398 97.3408 18.3203 97.9684 17.9318H95.0396L93.4855 18.6789H95.0695V30.753V31.4404C95.0695 31.8588 94.9798 31.9186 94.5016 32.5462H98.1478L98.9248 32.0979C98.5662 32.0382 98.2374 32.0083 97.8788 31.9485Z" fill="#F9F9F9"/>
<path d="M106.276 32.1576C106.037 32.2772 105.828 32.4266 105.589 32.5163C104.901 32.8151 104.214 32.9048 103.586 32.9048C102.929 32.9048 101.913 32.8749 100.867 32.0979C99.4022 31.0817 98.7745 29.3184 98.7745 27.7643C98.7745 24.5964 101.375 23.0124 103.467 23.0124C104.214 23.0124 104.961 23.1917 105.589 23.5802C106.605 24.2676 106.874 25.1343 107.023 25.6125L102.211 27.585L100.627 27.7046C101.136 30.3047 102.899 31.8289 104.871 31.8289C105.917 31.8289 106.665 31.4702 107.382 31.1116L106.276 32.1576ZM104.363 26.0309C104.752 25.8815 104.961 25.7619 104.961 25.4631C104.961 24.6561 104.035 23.6998 102.929 23.6998C102.092 23.6998 100.568 24.3274 100.568 26.539C100.568 26.8976 100.598 27.2563 100.627 27.6149L104.363 26.0309Z" fill="#F9F9F9"/>
<path d="M108.279 23.1917V24.5366H108.1V23.1917H107.651V23.0422H108.698V23.1917H108.279Z" fill="#F9F9F9"/>
<path d="M110.102 24.5367V23.1619L109.684 24.5367H109.564L109.146 23.1619V24.5367H108.996V23.0424H109.265L109.654 24.2378L110.042 23.0424H110.311V24.5367H110.102Z" fill="#F9F9F9"/>
<path d="M50.5077 14.3453H49.4915C49.4915 14.1959 49.4019 13.8073 49.1927 13.1498H47.6983C47.4891 13.8073 47.3995 14.1959 47.3995 14.3453H46.4431C46.4431 14.2556 46.6822 13.5682 47.1903 12.2831C47.6983 10.998 47.9374 10.2807 47.9374 10.1612H49.1628C49.1628 10.2807 49.4019 10.9681 49.8502 12.2532C50.2686 13.5384 50.5077 14.2257 50.5077 14.3453ZM49.0134 12.5222C48.6547 11.4164 48.4754 10.8187 48.4754 10.729H48.4156C48.4156 10.8187 48.2363 11.4164 47.8478 12.5222H49.0134Z" fill="#FCFCFD"/>
<path d="M54.6321 14.3455H53.8252C53.8252 14.2558 53.5263 13.8075 52.9286 12.9408C52.301 12.0442 51.9722 11.4465 51.8826 11.1177H51.8228C51.8826 11.5959 51.9125 12.0143 51.9125 12.4028C51.9125 12.9408 51.9125 13.5684 51.9722 14.3455H51.1952C51.2251 13.688 51.255 12.9408 51.255 12.1637C51.255 11.3867 51.2251 10.7292 51.1952 10.1614H52.1516C52.1516 10.2809 52.4205 10.7292 52.9585 11.5062C53.5263 12.3431 53.8551 12.9109 53.9149 13.2098H53.9746C53.9149 12.7316 53.885 12.3132 53.885 11.9247C53.885 11.3568 53.8551 10.7591 53.8252 10.1315H54.6321C54.6022 10.6694 54.5724 11.3269 54.5724 12.1339C54.6022 12.9707 54.6022 13.688 54.6321 14.3455Z" fill="#FCFCFD"/>
<path d="M59.2946 12.1039C59.2946 12.7016 59.0854 13.2396 58.6969 13.6879C58.3084 14.1361 57.7704 14.3752 57.0532 14.3752C56.7244 14.3752 56.306 14.3752 55.7382 14.3454C55.768 13.6879 55.768 12.9706 55.768 12.1636C55.768 11.3866 55.768 10.7291 55.7382 10.1613H56.306C56.3957 10.1613 56.5451 10.1613 56.7244 10.1613C56.9037 10.1613 57.0233 10.1613 57.083 10.1613C57.8601 10.1613 58.4279 10.3406 58.7567 10.7291C59.1153 11.1176 59.2946 11.5659 59.2946 12.1039ZM58.398 12.2533C58.398 11.8349 58.2785 11.5061 58.0394 11.2073C57.8003 10.9383 57.4417 10.7889 56.9336 10.7889C56.844 10.7889 56.7244 10.7889 56.5451 10.8188C56.575 11.2372 56.575 11.6855 56.575 12.1636C56.575 12.6717 56.575 13.1798 56.6049 13.6879C56.7543 13.7177 56.8738 13.7177 57.0233 13.7177C57.4716 13.7177 57.8302 13.5683 58.0394 13.2993C58.3084 13.0005 58.398 12.6717 58.398 12.2533Z" fill="#FCFCFD"/>
<path d="M63.5685 14.3454H62.6121C62.373 13.5982 62.1638 13.12 62.0442 12.9407C61.9247 12.7614 61.6856 12.6717 61.4166 12.6717C61.2971 12.6717 61.1775 12.6717 61.058 12.6717C61.058 13.2097 61.058 13.7775 61.0879 14.3454H60.1913C60.2212 13.6879 60.2212 12.9706 60.2212 12.1636C60.2212 11.3866 60.2212 10.7291 60.1913 10.1613H60.7591C60.8189 10.1613 60.9683 10.1613 61.1477 10.1613C61.3569 10.1613 61.5362 10.1613 61.7155 10.1613C62.7017 10.1613 63.1799 10.49 63.1799 11.1774C63.1799 11.7153 62.911 12.074 62.3431 12.2832V12.343C62.5523 12.4027 62.7615 12.5821 62.911 12.851C63.0903 13.0901 63.2995 13.5982 63.5685 14.3454ZM62.373 11.3866C62.373 10.9682 62.104 10.759 61.5362 10.759C61.327 10.759 61.1477 10.759 60.9982 10.8188C61.0281 11.1475 61.0281 11.5958 61.0281 12.1039C61.1477 12.1039 61.2373 12.1039 61.327 12.1039C62.0442 12.1039 62.373 11.8648 62.373 11.3866Z" fill="#FCFCFD"/>
<path d="M68.1699 12.1936C68.1699 12.8511 67.9607 13.389 67.5722 13.8373C67.1837 14.2558 66.6756 14.4948 66.0779 14.4948C65.51 14.4948 65.0318 14.2856 64.6732 13.8971C64.2847 13.5086 64.1053 13.0005 64.1053 12.3729C64.1053 11.7154 64.3146 11.1775 64.7031 10.7292C65.0916 10.3107 65.5997 10.0717 66.1974 10.0717C66.7652 10.0717 67.2434 10.2809 67.6021 10.6694C67.9906 11.0579 68.1699 11.566 68.1699 12.1936ZM67.3032 12.2833C67.3032 11.835 67.1837 11.4763 66.9744 11.2073C66.7354 10.9384 66.4664 10.7889 66.1376 10.7889C65.8388 10.7889 65.5698 10.9384 65.3307 11.2073C65.1215 11.4763 65.0019 11.835 65.0019 12.2833C65.0019 12.7315 65.1215 13.0902 65.3606 13.3592C65.5997 13.6281 65.8686 13.7776 66.1974 13.7776C66.4963 13.7776 66.7652 13.6281 67.0043 13.3592C67.1836 13.0603 67.3032 12.7017 67.3032 12.2833Z" fill="#FCFCFD"/>
<path d="M69.9941 14.3454H69.0975C69.1274 13.6879 69.1274 12.9407 69.1274 12.1636C69.1274 11.3866 69.1274 10.7291 69.0975 10.1613H69.9941C69.9642 10.6992 69.9642 11.3567 69.9642 12.1636C69.9642 12.9706 69.9642 13.6879 69.9941 14.3454Z" fill="#FCFCFD"/>
<path d="M74.656 12.1039C74.656 12.7016 74.4468 13.2396 74.0582 13.6879C73.6697 14.1361 73.1318 14.3752 72.4145 14.3752C72.0857 14.3752 71.6673 14.3752 71.0995 14.3454C71.1294 13.6879 71.1294 12.9706 71.1294 12.1636C71.1294 11.3866 71.1294 10.7291 71.0995 10.1613H71.6673C71.757 10.1613 71.9064 10.1613 72.0857 10.1613C72.2651 10.1613 72.3846 10.1613 72.4444 10.1613C73.2214 10.1613 73.7893 10.3406 74.118 10.7291C74.4767 11.1176 74.656 11.5659 74.656 12.1039ZM73.7594 12.2533C73.7594 11.8349 73.6398 11.5061 73.4007 11.2073C73.1617 10.9383 72.803 10.7889 72.2949 10.7889C72.2053 10.7889 72.0857 10.7889 71.9064 10.8188C71.9363 11.2372 71.9363 11.6855 71.9363 12.1636C71.9363 12.6717 71.9363 13.1798 71.9662 13.6879C72.1156 13.7177 72.2352 13.7177 72.3846 13.7177C72.8329 13.7177 73.1915 13.5683 73.4007 13.2993C73.6697 13.0005 73.7594 12.6717 73.7594 12.2533Z" fill="#FCFCFD"/>
<path d="M80.8125 14.3453H79.7963C79.7963 14.1959 79.7067 13.8073 79.4975 13.1498H78.0032C77.794 13.8073 77.7043 14.1959 77.7043 14.3453H76.7479C76.7479 14.2556 76.987 13.5682 77.4951 12.2831C78.0032 10.998 78.2422 10.2807 78.2422 10.1612H79.4676C79.4676 10.2807 79.7067 10.9681 80.155 12.2532C80.6033 13.5384 80.8125 14.2257 80.8125 14.3453ZM79.348 12.5222C78.9894 11.4164 78.8101 10.8187 78.8101 10.729H78.7503C78.7503 10.8187 78.571 11.4164 78.1825 12.5222H79.348Z" fill="#FCFCFD"/>
<path d="M84.5776 11.2671C84.5776 11.7751 84.3983 12.1636 84.0098 12.4027C83.6212 12.6418 83.1729 12.7614 82.6051 12.7614C82.5154 12.7614 82.4258 12.7614 82.3959 12.7614C82.3959 13.1499 82.3959 13.6879 82.4258 14.3454H81.5292C81.5591 13.7177 81.5591 13.0005 81.5591 12.1636C81.5591 11.3866 81.5591 10.7291 81.5292 10.1613H82.097C82.1867 10.1613 82.3361 10.1613 82.5453 10.1613C82.7844 10.1613 82.9637 10.1613 83.143 10.1613C83.5615 10.1613 83.8902 10.2509 84.1592 10.4302C84.4282 10.6096 84.5776 10.8785 84.5776 11.2671ZM83.7408 11.4464C83.7408 10.9981 83.4419 10.759 82.8143 10.759C82.6649 10.759 82.5154 10.7889 82.3361 10.8188C82.366 11.2372 82.366 11.6855 82.366 12.1935C82.4258 12.1935 82.4855 12.1935 82.5453 12.1935C83.3523 12.1935 83.7408 11.9246 83.7408 11.4464Z" fill="#FCFCFD"/>
<path d="M88.4038 11.2671C88.4038 11.7751 88.2244 12.1636 87.8359 12.4027C87.4474 12.6418 86.9991 12.7614 86.4313 12.7614C86.3416 12.7614 86.2519 12.7614 86.2221 12.7614C86.2221 13.1499 86.2221 13.6879 86.2519 14.3454H85.3553C85.3852 13.7177 85.3852 13.0005 85.3852 12.1636C85.3852 11.3866 85.3852 10.7291 85.3553 10.1613H85.9232C86.0128 10.1613 86.1623 10.1613 86.3715 10.1613C86.6106 10.1613 86.7899 10.1613 86.9692 10.1613C87.3876 10.1613 87.7164 10.2509 87.9853 10.4302C88.2842 10.6096 88.4038 10.8785 88.4038 11.2671ZM87.5968 11.4464C87.5968 10.9981 87.298 10.759 86.6703 10.759C86.5209 10.759 86.3715 10.7889 86.1922 10.8188C86.222 11.2372 86.2221 11.6855 86.2221 12.1935C86.2818 12.1935 86.3416 12.1935 86.4014 12.1935C87.2083 12.1935 87.5968 11.9246 87.5968 11.4464Z" fill="#FCFCFD"/>
<path d="M94.7099 12.1936C94.7099 12.8511 94.5007 13.389 94.1122 13.8373C93.7237 14.2856 93.2156 14.4948 92.6179 14.4948C92.05 14.4948 91.5719 14.2856 91.2132 13.8971C90.8247 13.5086 90.6454 13.0005 90.6454 12.3729C90.6454 11.7154 90.8546 11.1775 91.2431 10.7292C91.6316 10.3107 92.1397 10.0717 92.7374 10.0717C93.3053 10.0717 93.7835 10.2809 94.1421 10.6694C94.5306 11.0579 94.7099 11.566 94.7099 12.1936ZM93.8133 12.2833C93.8133 11.835 93.6938 11.4763 93.4846 11.2073C93.2455 10.9384 92.9765 10.7889 92.6478 10.7889C92.3489 10.7889 92.0799 10.9384 91.8408 11.2073C91.6316 11.4763 91.5121 11.835 91.5121 12.2833C91.5121 12.7315 91.6316 13.0902 91.8707 13.3592C92.1098 13.6281 92.3788 13.7776 92.7076 13.7776C93.0064 13.7776 93.2754 13.6281 93.5145 13.3592C93.7237 13.0603 93.8133 12.7017 93.8133 12.2833Z" fill="#FCFCFD"/>
<path d="M99.0726 14.3455H98.2656C98.2656 14.2558 97.9668 13.8075 97.369 12.9408C96.7414 12.0442 96.4127 11.4465 96.323 11.1177H96.2632C96.323 11.5959 96.3529 12.0143 96.3529 12.4028C96.3529 12.9408 96.3529 13.5684 96.4127 14.3455H95.6356C95.6655 13.688 95.6954 12.9408 95.6954 12.1637C95.6954 11.3867 95.6655 10.7292 95.6356 10.1614H96.592C96.592 10.2809 96.861 10.7292 97.3989 11.5062C97.9668 12.3431 98.2955 12.9109 98.3553 13.2098H98.4151C98.3553 12.7316 98.3254 12.3132 98.3254 11.9247C98.3254 11.3568 98.3254 10.7591 98.2656 10.1315H99.0726C99.0427 10.6694 99.0128 11.3269 99.0128 12.1339C99.0128 12.9707 99.0427 13.688 99.0726 14.3455Z" fill="#FCFCFD"/>
<defs>
<linearGradient id="paint0_linear_370_35115" x1="20.0035" y1="9.62658" x2="20.0035" y2="43.4887" gradientUnits="userSpaceOnUse">
<stop stop-color="#2079B0"/>
<stop offset="0.2863" stop-color="#4A93B8"/>
<stop offset="0.767" stop-color="#83BEBF"/>
<stop offset="1" stop-color="#97CFBF"/>
</linearGradient>
<linearGradient id="paint1_linear_370_35115" x1="11.4659" y1="18.0308" x2="33.1275" y2="18.0308" gradientUnits="userSpaceOnUse">
<stop stop-color="#5ABCAB"/>
<stop offset="1" stop-color="#E6E99A"/>
</linearGradient>
<linearGradient id="paint2_linear_370_35115" x1="22.2965" y1="26.5581" x2="22.2965" y2="43.6121" gradientUnits="userSpaceOnUse">
<stop stop-color="#E53432"/>
<stop offset="0.1668" stop-color="#D73948"/>
<stop offset="0.5748" stop-color="#B33F72"/>
<stop offset="0.8619" stop-color="#9A4189"/>
<stop offset="1" stop-color="#904192"/>
</linearGradient>
<linearGradient id="paint3_linear_370_35115" x1="34.772" y1="22.0102" x2="34.772" y2="31.1051" gradientUnits="userSpaceOnUse">
<stop stop-color="#F18779"/>
<stop offset="0.1194" stop-color="#F2917A"/>
<stop offset="0.7128" stop-color="#FABC77"/>
<stop offset="1" stop-color="#FDCB72"/>
</linearGradient>
</defs>
</svg>
