<svg width="38" height="45" viewBox="0 0 38 45" fill="none" xmlns="http://www.w3.org/2000/svg">
<path d="M37.75 11.9176H25.2765L18.9995 0.944824L12.7226 11.9176H0.25L6.48674 22.8203L0.25 33.722H12.7226L18.9995 44.6948L25.2765 33.722H37.75L31.5133 22.8203L37.75 11.9176ZM18.9995 7.40539L21.5811 11.9176H16.418L18.9995 7.40539ZM23.4284 15.1479L27.8179 22.8203L23.4284 30.4917H14.5707L10.1821 22.8203L14.5707 15.1479H23.4284ZM5.79357 15.1479H10.8753L8.33399 19.5891L5.79357 15.1479ZM5.79357 30.4917L8.33399 26.0506L10.8753 30.4917H5.79357ZM18.9995 38.2343L16.418 33.722H21.5811L18.9995 38.2343ZM32.2064 30.4917H27.1247L29.6651 26.0496L32.2064 30.4917ZM27.1247 15.1479H32.2064L29.6651 19.59L27.1247 15.1479Z" fill="#2C80DF"/>
</svg>
