<svg width="27" height="25" viewBox="0 0 27 25" fill="none" xmlns="http://www.w3.org/2000/svg">
<path d="M12.8658 0C6.12846 0 0.666748 5.40992 0.666748 12.0833C0.666748 18.7567 6.12846 24.1667 12.8658 24.1667C16.6328 24.1667 20.0016 22.4709 22.2394 19.8131C20.7772 20.7559 19.0461 21.3235 17.1714 21.3235C12.0193 21.3235 7.84267 17.1866 7.84267 12.0833C7.84267 6.98004 12.0193 2.84314 17.1714 2.84314C19.0461 2.84314 20.7772 3.41077 22.2394 4.35355C20.0016 1.69579 16.6328 0 12.8658 0ZM20.0417 5.68628L18.6066 9.95098H13.5834L17.889 12.7941L15.7362 17.7696L20.0417 14.9265L24.3473 17.7696L22.1945 12.7941L26.5001 9.95098H21.4769L20.0417 5.68628Z" fill="#2C80DF"/>
</svg>
