<svg width="30" height="26" viewBox="0 0 30 26" fill="none" xmlns="http://www.w3.org/2000/svg">
<path d="M21.6503 13.746V25.9998H17.8828V17.5554H12.117V25.9998H8.3495V13.746C8.34707 13.3893 8.4292 13.0374 8.58886 12.7204C8.74852 12.4033 8.98094 12.1307 9.26617 11.9258L14.1245 8.50107V4.74799H12.9099C12.8331 4.74799 12.757 4.73242 12.6861 4.70219C12.6152 4.67195 12.5508 4.62765 12.4967 4.57182C12.4426 4.516 12.3998 4.44976 12.3708 4.37694C12.3418 4.30411 12.3272 4.22613 12.3278 4.14749V3.8144C12.3278 3.65639 12.3892 3.50484 12.4983 3.39311C12.6075 3.28137 12.7555 3.2186 12.9099 3.2186H14.1428V1.26231C14.1428 1.10429 14.2042 0.952745 14.3133 0.841011C14.4225 0.729276 14.5705 0.666504 14.7249 0.666504H15.2749C15.4293 0.666504 15.5774 0.729276 15.6865 0.841011C15.7957 0.952745 15.857 1.10429 15.857 1.26231V3.24206H17.0899C17.2443 3.24206 17.3924 3.30483 17.5015 3.41657C17.6107 3.5283 17.672 3.67985 17.672 3.83786V4.17095C17.6726 4.24958 17.658 4.32756 17.629 4.40039C17.6 4.47322 17.5573 4.53946 17.5031 4.59528C17.449 4.6511 17.3847 4.69541 17.3137 4.72565C17.2428 4.75588 17.1667 4.77144 17.0899 4.77144H15.857V8.52453L20.7153 11.9258C21.004 12.1286 21.2399 12.4003 21.4029 12.7175C21.5658 13.0346 21.6507 13.3877 21.6503 13.746ZM27.5078 15.5147H23.4837V25.9998H29.6666V17.7243C29.6666 17.1383 29.4391 16.5762 29.0343 16.1618C28.6295 15.7475 28.0804 15.5147 27.5078 15.5147ZM0.333252 17.7243V25.9998H6.51617V15.5147H2.492C1.91947 15.5147 1.37038 15.7475 0.965535 16.1618C0.560691 16.5762 0.333252 17.1383 0.333252 17.7243Z" fill="#2C80DF"/>
</svg>
