<svg width="21" height="24" viewBox="0 0 21 24" fill="none" xmlns="http://www.w3.org/2000/svg">
<path fill-rule="evenodd" clip-rule="evenodd" d="M14.4717 2.24189C17.1571 4.27835 20.1368 9.20872 20.3207 12.2455C20.3943 13.9605 20.1368 15.5325 19.7321 16.8901L19.4011 17.819C18.9228 19.1052 18.3343 20.1056 17.8928 20.7844H2.77367C2.33224 20.1056 1.74366 19.1052 1.26544 17.819L0.934359 16.8544C0.52971 15.5325 0.272206 13.9605 0.345779 12.2455C0.52971 9.24445 3.5094 4.31408 6.15801 2.24189L7.15124 1.52734C7.73982 1.09862 8.25483 0.741342 8.73305 0.455524C9.68949 -0.151841 10.977 -0.151841 11.9335 0.455524C12.3749 0.741342 12.9267 1.09862 13.4785 1.49162V1.56307L13.5153 1.52734L14.4717 2.24189ZM11.492 11.6025H14.6189V9.35163H11.492V6.42199H9.17448V9.35163H6.04765V11.6025H9.17448V17.4975H11.492V11.6025ZM2.77359 21.4276H17.8927V24H2.77359V21.4276Z" fill="#2C80DF"/>
</svg>
