<svg width="31" height="23" viewBox="0 0 31 23" fill="none" xmlns="http://www.w3.org/2000/svg">
<path fill-rule="evenodd" clip-rule="evenodd" d="M19.3738 5.30976H26.677L30.6667 10.6195H23.4311H22.6534H21.6729L15.3502 2.49871L8.99375 10.6195H8.01323H7.23557H0L4.02352 5.30976H11.2929L15.3502 0L19.3738 5.30976ZM1.31868 21.9979V11.6015H8.21615V21.9979H1.31868ZM3.44878 18.696H4.39549V17.3128H3.44878V18.696ZM3.44878 16.3312H4.39549V14.948H3.44878V16.3312ZM5.17315 18.696H6.11986V17.3128H5.17315V18.696ZM5.17315 16.3312H6.11986V14.948H5.17315V16.3312ZM15.3501 4.0602L9.09505 12.0472V22.6667H21.6052V12.0472L15.3501 4.0602ZM15.5868 9.41458H16.1954V10.307H15.5868V9.41458ZM15.5868 10.9317H16.1954V11.8241H15.5868V10.9317ZM14.471 9.41458H15.0796V10.307H14.471V9.41458ZM14.471 10.9317H15.0796V11.8241H14.471V10.9317ZM16.4997 21.2835H14.1667V15.6167H16.4997V21.2835ZM22.4505 21.9979V11.6015H29.348V21.9979H22.4505ZM24.5806 18.696H25.5273V17.3128H24.5806V18.696ZM24.5806 16.3312H25.5273V14.948H24.5806V16.3312ZM26.2712 18.696H27.2179V17.3128H26.2712V18.696ZM26.2712 16.3312H27.2179V14.948H26.2712V16.3312Z" fill="#2C80DF"/>
</svg>
