<svg width="30" height="30" viewBox="0 0 30 30" fill="none" xmlns="http://www.w3.org/2000/svg">
<path d="M15 30C6.717 30 0 23.283 0 15C0 6.717 6.717 0 15 0C23.283 0 30 6.717 30 15C30 23.283 23.283 30 15 30Z" fill="url(#paint0_linear_264_1109)"/>
<path d="M15 6.60599C17.733 6.60599 18.057 6.61499 19.137 6.66599C20.136 6.71099 20.679 6.87899 21.039 7.01999C21.516 7.20599 21.858 7.42799 22.215 7.78499C22.572 8.14199 22.794 8.48399 22.98 8.96099C23.121 9.32099 23.286 9.86399 23.334 10.863C23.382 11.943 23.394 12.267 23.394 15C23.394 17.733 23.385 18.057 23.334 19.137C23.289 20.136 23.121 20.679 22.98 21.039C22.794 21.516 22.572 21.858 22.215 22.215C21.858 22.572 21.516 22.794 21.039 22.98C20.679 23.121 20.136 23.286 19.137 23.334C18.057 23.382 17.733 23.394 15 23.394C12.267 23.394 11.943 23.385 10.863 23.334C9.864 23.289 9.321 23.121 8.961 22.98C8.484 22.794 8.142 22.572 7.785 22.215C7.428 21.858 7.206 21.516 7.02 21.039C6.879 20.679 6.714 20.136 6.666 19.137C6.618 18.057 6.606 17.733 6.606 15C6.606 12.267 6.615 11.943 6.666 10.863C6.711 9.86399 6.879 9.32099 7.02 8.96099C7.206 8.48399 7.428 8.14199 7.785 7.78499C8.142 7.42799 8.484 7.20599 8.961 7.01999C9.321 6.87899 9.864 6.71399 10.863 6.66599C11.943 6.61499 12.267 6.60599 15 6.60599ZM15 4.76099C12.219 4.76099 11.871 4.77299 10.779 4.82399C9.68999 4.87499 8.946 5.04599 8.292 5.30099C7.62 5.55899 7.047 5.90999 6.48 6.47999C5.91 7.04999 5.562 7.61999 5.298 8.29499C5.046 8.94599 4.872 9.68999 4.821 10.782C4.77 11.874 4.758 12.222 4.758 15.003C4.758 17.784 4.77 18.132 4.821 19.224C4.872 20.313 5.043 21.057 5.298 21.711C5.559 22.38 5.91 22.953 6.48 23.52C7.05 24.09 7.62 24.438 8.295 24.702C8.946 24.954 9.69 25.128 10.782 25.179C11.874 25.23 12.222 25.242 15.003 25.242C17.784 25.242 18.132 25.23 19.224 25.179C20.313 25.128 21.057 24.957 21.711 24.702C22.38 24.441 22.953 24.09 23.52 23.52C24.09 22.95 24.438 22.38 24.702 21.705C24.954 21.054 25.128 20.31 25.179 19.218C25.23 18.126 25.242 17.778 25.242 14.997C25.242 12.216 25.23 11.868 25.179 10.776C25.128 9.68699 24.957 8.94299 24.702 8.28899C24.441 7.61999 24.09 7.04699 23.52 6.47999C22.95 5.90999 22.38 5.56199 21.705 5.29799C21.054 5.04599 20.31 4.87199 19.218 4.82099C18.129 4.77299 17.781 4.76099 15 4.76099Z" fill="white"/>
<path d="M15.0004 9.74097C12.0964 9.74097 9.74139 12.096 9.74139 15C9.74139 17.904 12.0964 20.259 15.0004 20.259C17.9044 20.259 20.2594 17.904 20.2594 15C20.2594 12.096 17.9044 9.74097 15.0004 9.74097ZM15.0004 18.414C13.1164 18.414 11.5864 16.887 11.5864 15C11.5864 13.113 13.1164 11.586 15.0004 11.586C16.8844 11.586 18.4144 13.113 18.4144 15C18.4144 16.887 16.8844 18.414 15.0004 18.414Z" fill="white"/>
<path d="M20.4655 10.764C21.1448 10.764 21.6955 10.2133 21.6955 9.53396C21.6955 8.85464 21.1448 8.30396 20.4655 8.30396C19.7862 8.30396 19.2355 8.85464 19.2355 9.53396C19.2355 10.2133 19.7862 10.764 20.4655 10.764Z" fill="white"/>
<defs>
<linearGradient id="paint0_linear_264_1109" x1="4.39339" y1="25.6066" x2="25.6066" y2="4.39339" gradientUnits="userSpaceOnUse">
<stop stop-color="#FFD521"/>
<stop offset="0.0551048" stop-color="#FFD020"/>
<stop offset="0.1241" stop-color="#FEC01E"/>
<stop offset="0.2004" stop-color="#FCA71B"/>
<stop offset="0.2821" stop-color="#FA8316"/>
<stop offset="0.3681" stop-color="#F85510"/>
<stop offset="0.4563" stop-color="#F51E09"/>
<stop offset="0.5" stop-color="#F30005"/>
<stop offset="0.5035" stop-color="#F20007"/>
<stop offset="0.5966" stop-color="#E1003B"/>
<stop offset="0.6879" stop-color="#D30067"/>
<stop offset="0.7757" stop-color="#C70088"/>
<stop offset="0.8589" stop-color="#BF00A0"/>
<stop offset="0.9357" stop-color="#BB00AF"/>
<stop offset="1" stop-color="#B900B4"/>
</linearGradient>
</defs>
</svg>
