<svg width="70" height="70" viewBox="0 0 70 70" fill="none" xmlns="http://www.w3.org/2000/svg">
<circle cx="35" cy="35" r="35" fill="#BCDEF3"/>
<path d="M52.2812 24.5856H41.367L35.8746 14.9844L30.3822 24.5856H19.4688L24.9259 34.1254L19.4688 43.6644H30.3822L35.8746 53.2656L41.367 43.6644H52.2812L46.8241 34.1254L52.2812 24.5856ZM35.8746 20.6374L38.1335 24.5856H33.6157L35.8746 20.6374ZM39.7498 27.4121L43.5906 34.1254L39.7498 40.8379H31.9994L28.1594 34.1254L31.9994 27.4121H39.7498ZM24.3194 27.4121H28.7659L26.5422 31.2981L24.3194 27.4121ZM24.3194 40.8379L26.5422 36.9519L28.7659 40.8379H24.3194ZM35.8746 47.6126L33.6157 43.6644H38.1335L35.8746 47.6126ZM47.4306 40.8379H42.9841L45.207 36.9511L47.4306 40.8379ZM42.9841 27.4121H47.4306L45.207 31.2989L42.9841 27.4121Z" fill="white"/>
</svg>
