<svg width="16" height="20" viewBox="0 0 16 20" fill="none" xmlns="http://www.w3.org/2000/svg">
<path d="M8 1C6.14348 1 4.36301 1.75857 3.05025 3.10883C1.7375 4.45909 1 6.29044 1 8.2C1 13.006 6.38125 19 8 19C9.61875 19 15 13.006 15 8.2C15 6.29044 14.2625 4.45909 12.9497 3.10883C11.637 1.75857 9.85652 1 8 1V1ZM8 11.8C7.30777 11.8 6.63108 11.5889 6.0555 11.1933C5.47993 10.7977 5.03133 10.2355 4.76642 9.57766C4.50151 8.91985 4.4322 8.19601 4.56725 7.49767C4.7023 6.79934 5.03564 6.15788 5.52513 5.65442C6.01461 5.15095 6.63825 4.80808 7.31718 4.66917C7.99612 4.53027 8.69985 4.60156 9.33939 4.87403C9.97893 5.14651 10.5256 5.60793 10.9101 6.19995C11.2947 6.79196 11.5 7.48799 11.5 8.2C11.5 9.15478 11.1313 10.0705 10.4749 10.7456C9.8185 11.4207 8.92826 11.8 8 11.8Z" stroke="white" stroke-width="1.4"/>
</svg>
