<svg width="40" height="40" viewBox="0 0 40 40" fill="none" xmlns="http://www.w3.org/2000/svg">
<g clip-path="url(#clip0_489_18739)">
<path d="M33.3675 10.046C30.402 10.0805 27.8043 11.6897 26.3675 14.0575C26.1836 13.2184 25.9537 12.4023 25.6778 11.5977C27.4135 9.55174 29.9422 8.19542 32.7813 8.00002C32.5399 7.34485 32.2411 6.72416 31.9077 6.12646C29.1721 6.48278 26.7238 7.74715 24.8617 9.60921C24.5514 8.95404 24.1951 8.31036 23.8158 7.68967C25.7008 5.97703 28.0342 4.75864 30.6204 4.2299C30.1491 3.6437 29.6204 3.10347 29.0571 2.59772C26.6663 3.28738 24.5054 4.48278 22.6893 6.06898C22.2755 5.52876 21.8388 5.00002 21.3675 4.49427C23.0112 3.046 24.9192 1.89657 27.0112 1.11496C26.2755 0.666686 25.4939 0.29887 24.6663 -0.0114746C22.9537 0.816112 21.3675 1.87358 19.9652 3.12646C18.5629 1.87358 16.9767 0.816112 15.264 -0.0114746C14.448 0.287376 13.6663 0.666686 12.9192 1.11496C15.0112 1.89657 16.9192 3.05749 18.5629 4.49427C18.1031 5.00002 17.6548 5.51726 17.2411 6.06898C15.448 4.48278 13.287 3.28738 10.9077 2.60922C10.3445 3.11496 9.82726 3.65519 9.3445 4.2414C11.9307 4.77013 14.264 5.98853 16.1491 7.70117C15.7698 8.32186 15.4135 8.96554 15.1031 9.62071C13.2525 7.75864 10.7928 6.49427 8.05715 6.13795C7.72381 6.73565 7.42496 7.36784 7.18358 8.01151C10.0227 8.20692 12.5514 9.56324 14.287 11.6092C14.0112 12.4023 13.7813 13.2299 13.5974 14.069C12.1606 11.6897 9.56289 10.092 6.59738 10.0575C6.45944 10.6897 6.37898 11.3448 6.33301 12.0115C6.37898 12.0115 6.43646 12.0115 6.48243 12.0115C9.98818 12.0115 12.8388 14.8621 12.8388 18.3678C12.8388 18.5632 12.8273 18.7586 12.8158 18.9425H15.1146C15.1031 18.7357 15.1031 18.5403 15.1031 18.3334C15.1031 16.7471 15.31 15.2069 15.6778 13.7471C16.333 15.1035 16.7123 16.6092 16.7123 18.2184C16.7123 18.4598 16.7008 18.7012 16.6893 18.9425H19.1146C19.1031 18.7471 19.1031 18.5517 19.1031 18.3448C19.1031 16.5977 19.4135 14.9196 19.9882 13.3678C20.5629 14.9196 20.8732 16.5977 20.8732 18.3448C20.8732 18.5403 20.8732 18.7471 20.8617 18.9425H23.287C23.2755 18.7012 23.264 18.4598 23.264 18.2184C23.264 16.6207 23.6319 15.1035 24.2985 13.7471C24.6778 15.2184 24.8732 16.7471 24.8732 18.3334C24.8732 18.5403 24.8732 18.7357 24.8617 18.9425H27.1606C27.1376 18.7471 27.1376 18.5632 27.1376 18.3678C27.1376 14.8621 29.9882 12.0115 33.4939 12.0115C33.5399 12.0115 33.5974 12.0115 33.6434 12.0115C33.5859 11.3448 33.4939 10.6897 33.3675 10.046ZM17.8043 13.7242C17.4594 12.8621 17.0227 12.046 16.4939 11.2874C16.8043 10.5517 17.1491 9.8391 17.5514 9.16094C18.0342 9.74715 18.4824 10.3678 18.8732 11.0345C18.4365 11.8851 18.0801 12.7931 17.8043 13.7242ZM19.9767 9.14944C19.5744 8.56324 19.1376 8.00002 18.6548 7.47128C19.0686 6.91956 19.5054 6.37933 19.9767 5.87358C20.448 6.37933 20.8847 6.90807 21.2985 7.47128C20.8158 8.00002 20.379 8.55174 19.9767 9.14944ZM22.1491 13.7242C21.8732 12.7931 21.5169 11.8851 21.0801 11.0345C21.4709 10.3793 21.9077 9.74715 22.402 9.16094C22.7928 9.8391 23.1491 10.5517 23.4594 11.2874C22.9307 12.046 22.4939 12.8621 22.1491 13.7242Z" fill="white"/>
<path d="M7.93103 27.1148L7.03448 23.4941H7.77011L8.31034 25.9309L8.7931 23.4941H9.47126L8.62069 27.3102C8.55172 27.6091 8.44828 27.816 8.28736 27.9424C8.12644 28.0689 7.90805 28.1378 7.60919 28.1378C7.45977 28.1378 7.33333 28.1148 7.2069 28.0689V27.4482C7.31034 27.4712 7.4023 27.4826 7.49425 27.4826C7.62069 27.4826 7.71264 27.4597 7.77011 27.4252C7.82759 27.3792 7.87356 27.3102 7.90805 27.2068L7.93103 27.1148ZM10.5057 24.1493H11.2759V28.0689H12V23.4941H9.78161V28.0689H10.5057V24.1493ZM13.2529 28.0803H12.5287V23.5056H13.5862C14.2988 23.5056 14.6552 23.8849 14.6552 24.6321V25.0803C14.6552 25.839 14.2988 26.2068 13.5862 26.2068H13.2414V28.0803H13.2529ZM13.2529 25.5631H13.5977C13.7241 25.5631 13.8046 25.5286 13.8621 25.4597C13.9195 25.3907 13.9425 25.2872 13.9425 25.1263V24.5861C13.9425 24.4367 13.9195 24.3217 13.8621 24.2528C13.8046 24.1838 13.7126 24.1493 13.5977 24.1493H13.2529V25.5631ZM14.6322 28.0803L15.3793 23.5056H16.3563L17.1034 28.0803H16.3793L16.2529 27.1838H15.4253L15.2989 28.0803H14.6322ZM15.5057 26.5631H16.1494L15.8276 24.2528L15.5057 26.5631ZM18.5632 28.0803H17.4368V23.5056H18.5172C18.8851 23.5056 19.1494 23.5976 19.3218 23.7585C19.4943 23.9309 19.5747 24.1953 19.5747 24.5516V24.7355C19.5747 25.2068 19.4253 25.5056 19.1149 25.6321V25.6436C19.4713 25.77 19.6552 26.0803 19.6552 26.5976V26.9884C19.6552 27.3447 19.5632 27.6091 19.3793 27.793C19.1954 27.9884 18.9195 28.0803 18.5632 28.0803ZM18.1494 25.3677H18.4253C18.5747 25.3677 18.6782 25.3332 18.7471 25.2528C18.8161 25.1723 18.8506 25.0574 18.8506 24.8849V24.6321C18.8506 24.3217 18.7241 24.1608 18.4828 24.1608H18.1379V25.3677H18.1494ZM18.1494 27.4252H18.5632C18.6897 27.4252 18.7931 27.3907 18.8506 27.3217C18.908 27.2528 18.9425 27.1378 18.9425 26.9769V26.5746C18.9425 26.3677 18.908 26.2298 18.8391 26.1378C18.7701 26.0574 18.6552 26.0114 18.4828 26.0114H18.1609V27.4252H18.1494ZM20.8621 27.8045C21.023 27.6206 21.1034 27.3217 21.1149 26.9079L21.1954 24.1493H21.8276V28.0689H22.5517V23.4941H20.5287L20.4138 26.9424C20.4138 27.1263 20.3793 27.2528 20.3218 27.3217C20.2644 27.3907 20.1609 27.4252 20.023 27.4252C19.9885 27.4252 19.9425 27.4252 19.908 27.4137V28.0459C19.977 28.0574 20.046 28.0689 20.1149 28.0689C20.4483 28.0803 20.7011 27.9884 20.8621 27.8045ZM25.0345 27.4252H23.7931V26.0229H24.7816V25.3677H23.7931V24.1608H25.0345V23.5056H23.069V28.0803H25.0345V27.4252ZM26.1379 26.0114H26.908V28.0689H27.6322V23.4941H26.908V25.3562H26.1379V23.4941H25.4138V28.0689H26.1379V26.0114ZM29.7701 25.1033V28.0689H30.4138V23.4941H29.6897L28.8046 26.4482V23.4941H28.1609V28.0689H28.8851L29.7701 25.1033ZM32.9195 27.4252H31.6782V26.0229H32.6667V25.3677H31.6782V24.1608H32.9195V23.5056H30.954V28.0803H32.9195V27.4252ZM0 34.5516H0.724138V30.6321H1.49425V34.5516H2.21839V29.9769H0V34.5516ZM4.5977 30.2068C4.78161 30.4022 4.87356 30.6895 4.87356 31.0574V33.4597C4.87356 33.8275 4.78161 34.1148 4.5977 34.3102C4.41379 34.5056 4.13793 34.6091 3.78161 34.6091C3.42529 34.6091 3.16092 34.5056 2.96552 34.3102C2.78161 34.1148 2.68965 33.8275 2.68965 33.4597V31.0574C2.68965 30.6895 2.78161 30.4137 2.96552 30.2068C3.14943 30.0114 3.42529 29.9079 3.78161 29.9079C4.13793 29.9079 4.41379 30.0114 4.5977 30.2068ZM4.16092 31.0114C4.16092 30.7125 4.03448 30.5631 3.7931 30.5631C3.54023 30.5631 3.42529 30.7125 3.42529 31.0114V33.5056C3.42529 33.8045 3.55172 33.9539 3.7931 33.9539C4.04598 33.9539 4.16092 33.8045 4.16092 33.5056V31.0114ZM6.93103 35.1608H6.2069V33.8964H6.5977C6.66667 33.8045 6.71264 33.6436 6.72414 33.4252L6.83908 29.9769H8.86207V33.8964H9.21839V35.1608H8.49425V34.5516H6.93103V35.1608ZM7.28736 33.8964H8.14942V30.6321H7.51724L7.44828 33.3907C7.43678 33.5976 7.37931 33.7585 7.28736 33.8964ZM9.56322 34.5516H11.5287V33.8964H10.2759V32.4941H11.2644V31.839H10.2759V30.6321H11.5172V29.9769H9.56322V34.5516ZM13.6437 34.5516H14.3678V29.9769H12.3448L12.2299 33.4252C12.2299 33.6091 12.1954 33.7355 12.1379 33.8045C12.0805 33.8735 11.977 33.9079 11.8391 33.9079C11.8046 33.9079 11.7586 33.9079 11.7241 33.8964V34.5286C11.7931 34.5401 11.8621 34.5516 11.931 34.5516C12.2874 34.5516 12.5402 34.4597 12.7011 34.2758C12.8621 34.0918 12.9425 33.793 12.954 33.3792L13.0345 30.6206H13.6667V34.5516H13.6437ZM16.3218 33.6551H15.4943L15.3678 34.5516H14.7011L15.4483 29.9769H16.4253L17.1724 34.5516H16.4483L16.3218 33.6551ZM16.2299 33.0344L15.908 30.724L15.5862 33.0344H16.2299ZM18.1379 31.0803L18.6782 34.5401H19.2759L19.8161 31.0803V34.5401H20.4943V29.9654H19.4828L19 33.2872L18.5172 29.9654H17.5057V34.5401H18.1379V31.0803ZM24.2069 31.5516C24.2069 32.3102 23.8506 32.678 23.1379 32.678H22.7931V34.5401H22.069V29.9654H23.1264C23.8391 29.9654 24.1954 30.3447 24.1954 31.0918V31.5516H24.2069ZM23.4828 31.0574C23.4828 30.9079 23.4598 30.793 23.4023 30.724C23.3448 30.6551 23.2529 30.6206 23.1379 30.6206H22.7931V32.0229H23.1379C23.2644 32.0229 23.3448 31.9884 23.4023 31.9194C23.4598 31.8505 23.4828 31.747 23.4828 31.5861V31.0574ZM24.5862 34.5516H26.5517V33.8964H25.3103V32.4941H26.2988V31.839H25.3103V30.6321H26.5517V29.9769H24.5862V34.5516ZM28.6782 34.5516H29.4023V29.9769H27.3793L27.2644 33.4252C27.2644 33.6091 27.2299 33.7355 27.1724 33.8045C27.1149 33.8735 27.0115 33.9079 26.8736 33.9079C26.8391 33.9079 26.7931 33.9079 26.7586 33.8964V34.5286C26.8276 34.5401 26.8966 34.5516 26.9655 34.5516C27.3218 34.5516 27.5747 34.4597 27.7356 34.2758C27.8965 34.0918 27.977 33.793 27.9885 33.3792L28.069 30.6206H28.7011V34.5516H28.6782ZM29.931 29.9769V34.5516H30.6552L31.5402 31.5861V34.5516H32.1839V29.9769H31.4598L30.5747 32.9309V29.9769H29.931ZM32.7241 34.5516H33.4483V30.6321H34.5632V29.9769H32.7241V34.5516ZM35.5402 32.9309V29.9769H34.8965V34.5516H35.6207L36.5057 31.5861V34.5516H37.1494V29.9769H36.4368L35.5402 32.9309ZM39.2299 29.9769L38.3448 32.9309V29.9769H37.7011V34.5516H38.4253L39.3103 31.5861V34.5516H39.954V29.9769H39.2299ZM38.8161 29.6436C39.0575 29.6436 39.2529 29.5746 39.3793 29.4367C39.5172 29.2987 39.5862 29.1148 39.5862 28.862H39.1609C39.1379 29.0689 39.0115 29.1723 38.8046 29.1723C38.6092 29.1723 38.4943 29.0689 38.4598 28.862H38.0345C38.046 29.1148 38.1149 29.2987 38.2414 29.4367C38.3908 29.5746 38.5862 29.6436 38.8161 29.6436ZM14.6782 36.5631L15.3218 39.9884H14.931L14.8046 39.2528H14.0115L13.8851 39.9884H13.5287L14.1609 36.5631H14.6782ZM14.7471 38.9309L14.4023 36.9999L14.069 38.9309H14.7471ZM15.9655 39.1723C15.9655 39.3447 15.931 39.4712 15.8851 39.5401C15.8391 39.6091 15.7471 39.6551 15.6322 39.6551C15.6207 39.6551 15.5977 39.6551 15.5517 39.6436V39.9769C15.5862 39.9884 15.6322 39.9884 15.6782 39.9884C15.9195 39.9884 16.092 39.9194 16.1954 39.793C16.2988 39.6551 16.3563 39.4482 16.3678 39.1608L16.4368 36.9079H17.092V39.9884H17.4713V36.5631H16.0805L15.9655 39.1723ZM19.0345 39.2987L18.5287 36.5631H17.977V39.9884H18.3103V37.1263L18.8506 39.9884H19.1724L19.7126 37.1263V39.9884H20.0805V36.5631H19.5402L19.0345 39.2987ZM21.6092 36.5631L22.2529 39.9884H21.8621L21.7356 39.2528H20.9425L20.8161 39.9884H20.4598L21.092 36.5631H21.6092ZM21.6782 38.9309L21.3333 36.9999L21 38.9309H21.6782ZM22.2069 36.9079H22.8161V39.9884H23.1954V36.9079H23.8046V36.5631H22.2069V36.9079ZM25.6897 38.7585V39.1608C25.6897 39.7125 25.4368 39.9884 24.9195 39.9884H24.1724V36.5631H24.5517V37.9309H24.9195C25.4253 37.9309 25.6897 38.2068 25.6897 38.7585ZM25.2988 38.7355C25.2988 38.5746 25.2644 38.4482 25.2069 38.3792C25.1494 38.3102 25.046 38.2758 24.908 38.2758H24.5402V39.6436H24.908C25.046 39.6436 25.1494 39.6091 25.2069 39.5401C25.2644 39.4712 25.2988 39.3562 25.2988 39.1838V38.7355ZM26.046 39.9884H26.4253V36.5631H26.046V39.9884ZM6.83908 38.4137H11.4023V38.1493H6.83908V38.4137ZM28.3793 38.4137H32.9425V38.1493H28.3793V38.4137Z" fill="white"/>
</g>
<defs>
<clipPath id="clip0_489_18739">
<rect width="39.954" height="40" fill="white"/>
</clipPath>
</defs>
</svg>
