<svg width="70" height="70" viewBox="0 0 70 70" fill="none" xmlns="http://www.w3.org/2000/svg">
<circle cx="35" cy="35" r="35" fill="#F1958E"/>
<path d="M34.9332 18.2656C26.0904 18.2656 18.9219 25.3661 18.9219 34.125C18.9219 42.8839 26.0904 49.9844 34.9332 49.9844C39.8774 49.9844 44.2989 47.7587 47.2359 44.2703C45.3169 45.5077 43.0448 46.2528 40.5842 46.2528C33.8221 46.2528 28.3403 40.8231 28.3403 34.125C28.3403 27.4269 33.8221 21.9972 40.5842 21.9972C43.0448 21.9972 45.3169 22.7423 47.2359 23.9797C44.2989 20.4913 39.8774 18.2656 34.9332 18.2656ZM44.3516 25.7289L42.4679 31.3263H35.875L41.526 35.0579L38.7005 41.5882L44.3516 37.8566L50.0026 41.5882L47.1771 35.0579L52.8281 31.3263H46.2352L44.3516 25.7289Z" fill="white"/>
</svg>
