<svg width="70" height="70" viewBox="0 0 70 70" fill="none" xmlns="http://www.w3.org/2000/svg">
<circle cx="35" cy="35" r="35" fill="#ADCF7B"/>
<path d="M33.5283 22.9147L34.1254 23.5043L34.7226 22.9147C36.45 21.2096 38.7903 20.2072 41.2813 20.2072C46.4555 20.2072 50.6862 24.4795 50.6863 29.7538C50.6863 34.1384 49.1222 38.047 45.6586 42.0989C44.2961 43.6928 41.7365 45.7921 39.4201 47.5541C37.1241 49.3005 35.1417 50.66 34.9849 50.7673L34.1256 51.355L33.2662 50.7673L33.2661 50.7672C33.1094 50.6601 31.127 49.3006 28.831 47.5541C26.5146 45.7922 23.955 43.6928 22.5925 42.0989C19.1289 38.047 17.5648 34.1384 17.5648 29.7538C17.5648 24.4795 21.7955 20.2072 26.9696 20.2072C29.4607 20.2072 31.801 21.2095 33.5283 22.9147Z" stroke="white" stroke-width="1.7"/>
</svg>
