<svg width="70" height="70" viewBox="0 0 70 70" fill="none" xmlns="http://www.w3.org/2000/svg">
<circle cx="35" cy="35" r="35" fill="#FFD675"/>
<path d="M54.2785 32.841H52.9465C52.3196 24.4264 45.5819 17.6809 37.1589 17.0534V15.7214C37.159 15.0124 36.5841 14.4375 35.875 14.4375C35.1659 14.4375 34.591 15.0124 34.591 15.7215V17.0535C26.1757 17.6804 19.4309 24.4189 18.8035 32.841H17.4715C16.7624 32.841 16.1875 33.4159 16.1875 34.125C16.1875 34.8341 16.7624 35.409 17.4715 35.409H18.8035C19.4304 43.8237 26.1681 50.5691 34.5911 51.1966V52.5286C34.5911 53.2377 35.166 53.8126 35.8751 53.8126C36.5841 53.8126 37.1591 53.2377 37.1591 52.5286V51.1966C45.5745 50.5697 52.3192 43.8312 52.9467 35.409H54.2787C54.9877 35.409 55.5627 34.8341 55.5627 34.125C55.5625 33.4159 54.9877 32.841 54.2785 32.841ZM50.3693 32.841H47.7898C47.5391 30.4979 46.6101 28.3548 45.2037 26.6121L47.0272 24.7886C48.8892 27.0092 50.1015 29.7915 50.3693 32.841ZM37.159 19.6306C40.2085 19.8986 42.991 21.1107 45.2114 22.9728L43.3879 24.7963C41.6451 23.3899 39.5021 22.461 37.159 22.2102V19.6306ZM39.6686 36.1028C39.7843 35.882 39.8819 35.6503 39.9579 35.409H45.2029C44.9786 37.0468 44.3316 38.5517 43.3757 39.8099L39.6686 36.1028ZM41.5599 41.6257C40.3017 42.5816 38.7968 43.2286 37.159 43.4529V38.2079C37.4003 38.1319 37.632 38.0343 37.8528 37.9186L41.5599 41.6257ZM39.9579 32.841C39.8819 32.5997 39.7843 32.368 39.6686 32.1472L43.3757 28.4401C44.3316 29.6983 44.9786 31.2032 45.2029 32.841H39.9579ZM37.159 24.7971C38.7968 25.0215 40.3017 25.6684 41.5599 26.6243L37.8528 30.3314C37.632 30.2157 37.4003 30.1181 37.159 30.0422V24.7971ZM34.591 19.6306V22.2102C32.2479 22.4609 30.1048 23.3899 28.3621 24.7963L26.5386 22.9728C28.7592 21.1107 31.5415 19.8986 34.591 19.6306ZM31.7922 35.409C31.8681 35.6503 31.9657 35.882 32.0814 36.1028L28.3743 39.8099C27.4184 38.5517 26.7715 37.0468 26.5471 35.409H31.7922ZM26.5471 32.841C26.7715 31.2032 27.4184 29.6983 28.3743 28.4401L32.0813 32.1472C31.9657 32.3681 31.8682 32.5998 31.7922 32.841H26.5471ZM30.1901 26.6243C31.4483 25.6684 32.9532 25.0215 34.591 24.7971V30.0422C34.3497 30.1181 34.118 30.2157 33.8972 30.3314L30.1901 26.6243ZM24.7228 24.7886L26.5463 26.6121C25.1399 28.3549 24.211 30.4979 23.9602 32.841H21.3806C21.6486 29.7915 22.8607 27.0091 24.7228 24.7886ZM21.3806 35.409H23.9602C24.2109 37.7521 25.1399 39.8952 26.5463 41.6379L24.7228 43.4614C22.8607 41.2408 21.6486 38.4585 21.3806 35.409ZM34.591 48.6194C31.5415 48.3515 28.7591 47.1393 26.5386 45.2772L28.3621 43.4537C30.1049 44.8601 32.2479 45.789 34.591 46.0398V48.6194ZM34.591 43.4529C32.9532 43.2286 31.4483 42.5816 30.1901 41.6257L33.8972 37.9186C34.1181 38.0343 34.3498 38.1319 34.591 38.2079V43.4529ZM35.875 35.837C34.9315 35.837 34.163 35.0683 34.163 34.125C34.163 33.1815 34.9317 32.413 35.875 32.413C36.8185 32.413 37.587 33.1817 37.587 34.125C37.587 35.0685 36.8183 35.837 35.875 35.837ZM37.159 48.6194V46.0398C39.5021 45.7891 41.6452 44.8601 43.3879 43.4537L45.2114 45.2772C42.9908 47.1393 40.2085 48.3515 37.159 48.6194ZM47.0272 43.4614L45.2037 41.6379C46.6101 39.8951 47.539 37.7521 47.7898 35.4089H50.3694C50.1015 38.4585 48.8893 41.241 47.0272 43.4614Z" fill="white"/>
</svg>
