<svg width="320" height="222" viewBox="0 0 320 222" fill="none" xmlns="http://www.w3.org/2000/svg">
<path d="M316.768 117.799C282.02 118.203 251.582 137.05 234.747 164.784C232.593 154.956 229.899 145.397 226.667 135.973C247.003 112.01 276.633 96.1237 309.899 93.835C307.071 86.1613 303.569 78.8914 299.663 71.8908C267.609 76.0643 238.923 90.8733 217.104 112.683C213.468 105.009 209.293 97.47 204.848 90.2001C226.936 70.1407 254.276 55.8702 284.579 49.6774C279.057 42.8114 272.862 36.4839 266.263 30.5603C238.249 38.638 212.929 52.6392 191.65 71.2177C186.801 64.8902 181.683 58.6974 176.162 52.7738C195.421 35.8108 217.778 22.3481 242.29 13.1935C233.67 7.943 224.512 3.63493 214.815 0C194.747 9.69315 176.162 22.0788 159.731 36.7532C143.3 22.0788 124.714 9.69315 104.646 0C95.0842 3.5003 85.9259 7.943 77.1717 13.1935C101.684 22.3481 124.04 35.9454 143.3 52.7738C137.912 58.6974 132.66 64.7556 127.811 71.2177C106.801 52.6392 81.4815 38.638 53.6027 30.695C47.0034 36.6186 40.9428 42.946 35.2862 49.812C65.5892 56.0048 92.9293 70.2753 115.017 90.3347C110.572 97.6046 106.397 105.144 102.761 112.817C81.0774 91.0079 52.2559 76.1989 20.202 72.0255C16.2963 79.0261 12.7946 86.4306 9.96633 93.9697C43.2323 96.2583 72.862 112.144 93.1987 136.108C89.9663 145.397 87.2727 155.09 85.1178 164.918C68.2828 137.05 37.8451 118.337 3.09765 117.933C1.48149 125.338 0.538721 133.012 0 140.82C0.538721 140.82 1.21213 140.82 1.75085 140.82C42.8283 140.82 76.229 174.207 76.229 215.269C76.229 217.557 76.0943 219.846 75.9596 222H102.896C102.761 219.577 102.761 217.288 102.761 214.865C102.761 196.286 105.185 178.246 109.495 161.149C117.172 177.035 121.616 194.671 121.616 213.518C121.616 216.346 121.481 219.173 121.347 222H149.764C149.63 219.711 149.63 217.423 149.63 214.999C149.63 194.536 153.266 174.881 160 156.706C166.734 174.881 170.37 194.536 170.37 214.999C170.37 217.288 170.37 219.711 170.236 222H198.653C198.519 219.173 198.384 216.346 198.384 213.518C198.384 194.805 202.694 177.035 210.505 161.149C214.949 178.381 217.239 196.286 217.239 214.865C217.239 217.288 217.239 219.577 217.104 222H244.04C243.771 219.711 243.771 217.557 243.771 215.269C243.771 174.207 277.172 140.82 318.249 140.82C318.788 140.82 319.461 140.82 320 140.82C319.327 133.012 318.249 125.338 316.768 117.799ZM134.411 160.879C130.37 150.782 125.253 141.224 119.057 132.338C122.694 123.722 126.734 115.375 131.448 107.432C137.104 114.298 142.357 121.568 146.936 129.377C141.818 139.339 137.643 149.975 134.411 160.879ZM159.865 107.298C155.152 100.432 150.034 93.835 144.377 87.6422C149.226 81.1801 154.343 74.8526 159.865 68.929C165.387 74.8526 170.505 81.0455 175.354 87.6422C169.697 93.835 164.579 100.297 159.865 107.298ZM185.32 160.879C182.088 149.975 177.912 139.339 172.795 129.377C177.374 121.703 182.492 114.298 188.283 107.432C192.862 115.375 197.037 123.722 200.673 132.338C194.478 141.224 189.36 150.782 185.32 160.879Z" fill="white" fill-opacity="0.08"/>
</svg>
