<svg width="68" height="51" viewBox="0 0 68 51" fill="none" xmlns="http://www.w3.org/2000/svg">
<path d="M26.5075 32.1354L26.5069 32.1368L18.2478 49.8198H3.16402L8.87865 30.3912L9.11728 29.58L8.35692 29.2099C6.00613 28.0657 4.20725 26.4403 2.9313 24.3292C1.65567 22.1374 1 19.5414 1 16.5061C1 11.9987 2.41927 8.47669 5.19722 5.83351C7.99102 3.17524 11.5903 1.81982 16.0823 1.81982C20.5742 1.81982 24.1735 3.17524 26.9673 5.8335C29.7452 8.47669 31.1645 11.9987 31.1645 16.5061C31.1645 18.5399 30.8925 20.5773 30.3457 22.6201C29.8016 24.6527 28.5352 27.8117 26.5075 32.1354ZM62.0514 32.1354L62.0507 32.1368L53.7917 49.8198H38.7078L44.4225 30.3912L44.6611 29.58L43.9007 29.2099C41.55 28.0658 39.7511 26.4403 38.4751 24.3293C37.1995 22.1375 36.5438 19.5414 36.5438 16.5061C36.5438 11.9987 37.9631 8.47669 40.741 5.83351C43.5348 3.17524 47.1341 1.81982 51.6261 1.81982C56.118 1.81982 59.7173 3.17524 62.5111 5.83351C65.2891 8.47669 66.7083 11.9987 66.7083 16.5061C66.7083 18.5399 66.4363 20.5773 65.8895 22.6201C65.3454 24.6527 64.079 27.8117 62.0514 32.1354Z" stroke="#2C80DF" stroke-width="2"/>
</svg>
