<svg width="70" height="70" viewBox="0 0 70 70" fill="none" xmlns="http://www.w3.org/2000/svg">
<g clip-path="url(#clip0_264_57)">
<path d="M58.3934 17.5806C53.2037 17.6409 48.6577 20.457 46.1434 24.6007C45.8215 23.1323 45.4192 21.7041 44.9365 20.2961C47.9738 16.7156 52.3991 14.342 57.3675 14.0001C56.9451 12.8535 56.4221 11.7673 55.8388 10.7214C51.0514 11.3449 46.7669 13.5576 43.5083 16.8162C42.9652 15.6696 42.3416 14.5432 41.6778 13.457C44.9767 10.4599 49.06 8.32768 53.5859 7.40239C52.7612 6.37653 51.8359 5.43113 50.8503 4.54607C46.6663 5.75297 42.8847 7.84492 39.7066 10.6208C38.9824 9.67538 38.2181 8.75009 37.3934 7.86504C40.2698 5.33055 43.6089 3.31906 47.2698 1.95124C45.9824 1.16676 44.6146 0.523084 43.1663 -0.0200195C40.1692 1.42826 37.3934 3.27883 34.9393 5.47136C32.4853 3.27883 29.7094 1.42826 26.7123 -0.0200195C25.2842 0.502969 23.9163 1.16676 22.6089 1.95124C26.2698 3.31906 29.6089 5.35067 32.4853 7.86504C31.6807 8.75009 30.8962 9.65527 30.1721 10.6208C27.0342 7.84492 23.2525 5.75297 19.0888 4.56619C18.1031 5.45124 17.198 6.39665 16.3531 7.42251C20.879 8.3478 24.9623 10.48 28.2612 13.4771C27.5974 14.5633 26.9738 15.6897 26.4307 16.8363C23.1922 13.5777 18.8876 11.365 14.1002 10.7415C13.5169 11.7875 12.9939 12.8938 12.5715 14.0202C17.5399 14.3622 21.9652 16.7357 25.0025 20.3162C24.5198 21.7041 24.1175 23.1524 23.7957 24.6208C21.2813 20.457 16.7353 17.661 11.5457 17.6007C11.3043 18.707 11.1635 19.8535 11.083 21.0202C11.1635 21.0202 11.264 21.0202 11.3445 21.0202C17.4796 21.0202 22.4681 26.0087 22.4681 32.1438C22.4681 32.4857 22.448 32.8277 22.4278 33.1495H26.4508C26.4307 32.7875 26.4307 32.4455 26.4307 32.0834C26.4307 29.3076 26.7928 26.6122 27.4365 24.0576C28.583 26.4311 29.2468 29.0662 29.2468 31.8823C29.2468 32.3047 29.2267 32.7271 29.2066 33.1495H33.4508C33.4307 32.8076 33.4307 32.4656 33.4307 32.1035C33.4307 29.0461 33.9738 26.1093 34.9796 23.3938C35.9853 26.1093 36.5284 29.0461 36.5284 32.1035C36.5284 32.4455 36.5284 32.8076 36.5083 33.1495H40.7526C40.7324 32.7271 40.7123 32.3047 40.7123 31.8823C40.7123 29.0863 41.356 26.4311 42.5227 24.0576C43.1865 26.6323 43.5284 29.3076 43.5284 32.0834C43.5284 32.4455 43.5284 32.7875 43.5083 33.1495H47.5313C47.4911 32.8076 47.4911 32.4857 47.4911 32.1438C47.4911 26.0087 52.4796 21.0202 58.6146 21.0202C58.6951 21.0202 58.7957 21.0202 58.8761 21.0202C58.7755 19.8535 58.6146 18.707 58.3934 17.5806ZM31.1577 24.0173C30.5543 22.5087 29.7899 21.0806 28.8646 19.753C29.4077 18.4656 30.0112 17.2185 30.7152 16.0317C31.56 17.0576 32.3445 18.1438 33.0284 19.3104C32.264 20.7989 31.6405 22.388 31.1577 24.0173ZM34.9594 16.0116C34.2554 14.9857 33.4911 14.0001 32.6462 13.0748C33.3704 12.1093 34.1347 11.1639 34.9594 10.2788C35.7842 11.1639 36.5485 12.0892 37.2727 13.0748C36.4278 14.0001 35.6635 14.9656 34.9594 16.0116ZM38.7612 24.0173C38.2784 22.388 37.6548 20.7989 36.8905 19.3104C37.5744 18.1639 38.3388 17.0576 39.2037 16.0317C39.8876 17.2185 40.5112 18.4656 41.0543 19.753C40.129 21.0806 39.3646 22.5087 38.7612 24.0173Z" fill="url(#paint0_linear_264_57)"/>
<path d="M13.8793 47.4512L12.3103 41.1149H13.5977L14.5431 45.3793L15.3879 41.1149H16.5747L15.0862 47.7931C14.9655 48.3161 14.7845 48.6782 14.5029 48.8994C14.2213 49.1207 13.8391 49.2414 13.3161 49.2414C13.0546 49.2414 12.8333 49.2012 12.6121 49.1207V48.0345C12.7931 48.0747 12.954 48.0948 13.1149 48.0948C13.3362 48.0948 13.4971 48.0546 13.5977 47.9943C13.6983 47.9138 13.7787 47.7931 13.8391 47.6121L13.8793 47.4512ZM18.3851 42.2615H19.7328V49.1207H21V41.1149H17.1178V49.1207H18.3851V42.2615ZM23.1925 49.1408H21.9253V41.1351H23.7759C25.023 41.1351 25.6466 41.7989 25.6466 43.1063V43.8908C25.6466 45.2184 25.023 45.8621 23.7759 45.8621H23.1724V49.1408H23.1925ZM23.1925 44.7356H23.796C24.0172 44.7356 24.158 44.6753 24.2586 44.5546C24.3592 44.4339 24.3994 44.2529 24.3994 43.9713V43.0259C24.3994 42.7644 24.3592 42.5632 24.2586 42.4425C24.158 42.3218 23.9971 42.2615 23.796 42.2615H23.1925V44.7356ZM25.6063 49.1408L26.9138 41.1351H28.6236L29.931 49.1408H28.6638L28.4425 47.5718H26.9943L26.773 49.1408H25.6063ZM27.1351 46.4856H28.2615L27.6983 42.4425L27.1351 46.4856ZM32.4856 49.1408H30.5144V41.1351H32.4052C33.0489 41.1351 33.5115 41.296 33.8132 41.5776C34.1149 41.8793 34.2557 42.342 34.2557 42.9655V43.2874C34.2557 44.1121 33.9943 44.6351 33.4511 44.8563V44.8764C34.0747 45.0977 34.3965 45.6408 34.3965 46.546V47.2299C34.3965 47.8535 34.2356 48.3161 33.9138 48.6379C33.592 48.9799 33.1092 49.1408 32.4856 49.1408ZM31.7615 44.3937H32.2443C32.5057 44.3937 32.6868 44.3333 32.8075 44.1925C32.9282 44.0517 32.9885 43.8506 32.9885 43.5489V43.1063C32.9885 42.5632 32.7672 42.2816 32.3448 42.2816H31.7414V44.3937H31.7615ZM31.7615 47.9943H32.4856C32.7069 47.9943 32.8879 47.9339 32.9885 47.8132C33.0891 47.6925 33.1494 47.4914 33.1494 47.2098V46.5057C33.1494 46.1437 33.0891 45.9023 32.9684 45.7414C32.8477 45.6006 32.6466 45.5201 32.3448 45.5201H31.7816V47.9943H31.7615ZM36.5086 48.658C36.7902 48.3362 36.931 47.8132 36.9511 47.0891L37.092 42.2615H38.1983V49.1207H39.4655V41.1149H35.9253L35.7241 47.1494C35.7241 47.4713 35.6638 47.6925 35.5632 47.8132C35.4626 47.9339 35.2816 47.9943 35.0402 47.9943C34.9799 47.9943 34.8994 47.9943 34.8391 47.9741V49.0805C34.9598 49.1006 35.0805 49.1207 35.2011 49.1207C35.7845 49.1408 36.227 48.9799 36.5086 48.658ZM43.8103 47.9943H41.6379V45.5402H43.3678V44.3937H41.6379V42.2816H43.8103V41.1351H40.3707V49.1408H43.8103V47.9943ZM45.7414 45.5201H47.0891V49.1207H48.3563V41.1149H47.0891V44.3736H45.7414V41.1149H44.4741V49.1207H45.7414V45.5201ZM52.0977 43.931V49.1207H53.2241V41.1149H51.9569L50.408 46.2845V41.1149H49.2816V49.1207H50.5489L52.0977 43.931ZM57.6092 47.9943H55.4368V45.5402H57.1667V44.3937H55.4368V42.2816H57.6092V41.1351H54.1695V49.1408H57.6092V47.9943ZM0 60.4655H1.26724V53.6063H2.61494V60.4655H3.88218V52.4598H0V60.4655ZM8.04598 52.8621C8.36782 53.204 8.52874 53.7069 8.52874 54.3506V58.5546C8.52874 59.1983 8.36782 59.7012 8.04598 60.0431C7.72414 60.3851 7.24138 60.5661 6.61782 60.5661C5.99425 60.5661 5.53161 60.3851 5.18965 60.0431C4.86782 59.7012 4.7069 59.1983 4.7069 58.5546V54.3506C4.7069 53.7069 4.86782 53.2241 5.18965 52.8621C5.51149 52.5201 5.99425 52.3391 6.61782 52.3391C7.24138 52.3391 7.72414 52.5201 8.04598 52.8621ZM7.28161 54.2701C7.28161 53.7471 7.06034 53.4856 6.63793 53.4856C6.1954 53.4856 5.99425 53.7471 5.99425 54.2701V58.6351C5.99425 59.158 6.21552 59.4195 6.63793 59.4195C7.08046 59.4195 7.28161 59.158 7.28161 58.6351V54.2701ZM12.1293 61.5316H10.8621V59.319H11.546C11.6667 59.158 11.7471 58.8764 11.7672 58.4943L11.9684 52.4598H15.5086V59.319H16.1322V61.5316H14.8649V60.4655H12.1293V61.5316ZM12.7529 59.319H14.2615V53.6063H13.1552L13.0345 58.4339C13.0144 58.796 12.9138 59.0776 12.7529 59.319ZM16.7356 60.4655H20.1753V59.319H17.9828V56.8649H19.7126V55.7184H17.9828V53.6063H20.1552V52.4598H16.7356V60.4655ZM23.8764 60.4655H25.1437V52.4598H21.6034L21.4023 58.4943C21.4023 58.8161 21.342 59.0374 21.2414 59.1581C21.1408 59.2787 20.9598 59.3391 20.7184 59.3391C20.658 59.3391 20.5776 59.3391 20.5172 59.319V60.4253C20.6379 60.4454 20.7586 60.4655 20.8793 60.4655C21.5029 60.4655 21.9454 60.3046 22.227 59.9828C22.5086 59.6609 22.6494 59.1379 22.6695 58.4138L22.8103 53.5862H23.9167V60.4655H23.8764ZM28.5632 58.8966H27.1149L26.8937 60.4655H25.727L27.0345 52.4598H28.7443L30.0517 60.4655H28.7845L28.5632 58.8966ZM28.4023 57.8103L27.8391 53.7672L27.2759 57.8103H28.4023ZM31.7414 54.3908L32.6868 60.4454H33.7328L34.6782 54.3908V60.4454H35.8649V52.4397H34.0948L33.25 58.2529L32.4052 52.4397H30.6351V60.4454H31.7414V54.3908ZM42.3621 55.2155C42.3621 56.5431 41.7385 57.1868 40.4914 57.1868H39.8879V60.4454H38.6207V52.4397H40.4713C41.7184 52.4397 42.342 53.1035 42.342 54.4109V55.2155H42.3621ZM41.0948 54.3506C41.0948 54.0891 41.0546 53.8879 40.954 53.7672C40.8534 53.6466 40.6925 53.5862 40.4914 53.5862H39.8879V56.0402H40.4914C40.7126 56.0402 40.8534 55.9799 40.954 55.8592C41.0546 55.7385 41.0948 55.5575 41.0948 55.2759V54.3506ZM43.0259 60.4655H46.4655V59.319H44.2931V56.8649H46.023V55.7184H44.2931V53.6063H46.4655V52.4598H43.0259V60.4655ZM50.1868 60.4655H51.454V52.4598H47.9138L47.7126 58.4943C47.7126 58.8161 47.6523 59.0374 47.5517 59.1581C47.4511 59.2787 47.2701 59.3391 47.0287 59.3391C46.9684 59.3391 46.8879 59.3391 46.8276 59.319V60.4253C46.9483 60.4454 47.069 60.4655 47.1897 60.4655C47.8132 60.4655 48.2557 60.3046 48.5374 59.9828C48.819 59.6609 48.9598 59.1379 48.9799 58.4138L49.1207 53.5862H50.227V60.4655H50.1868ZM52.3793 52.4598V60.4655H53.6466L55.1954 55.2759V60.4655H56.3218V52.4598H55.0546L53.5057 57.6293V52.4598H52.3793ZM57.2672 60.4655H58.5345V53.6063H60.4856V52.4598H57.2672V60.4655ZM62.1954 57.6293V52.4598H61.069V60.4655H62.3362L63.8851 55.2759V60.4655H65.0115V52.4598H63.7644L62.1954 57.6293ZM68.6523 52.4598L67.1034 57.6293V52.4598H65.977V60.4655H67.2442L68.7931 55.2759V60.4655H69.9195V52.4598H68.6523ZM67.9282 51.8764C68.3506 51.8764 68.6925 51.7558 68.9138 51.5144C69.1552 51.273 69.2759 50.9512 69.2759 50.5086H68.5316C68.4914 50.8707 68.2701 51.0517 67.908 51.0517C67.5661 51.0517 67.3649 50.8707 67.3046 50.5086H66.5603C66.5805 50.9512 66.7011 51.273 66.9224 51.5144C67.1839 51.7558 67.5259 51.8764 67.9282 51.8764ZM25.6868 63.9856L26.8132 69.9799H26.1293L25.908 68.6925H24.5201L24.2989 69.9799H23.6753L24.7816 63.9856H25.6868ZM25.8075 68.1293L25.204 64.75L24.6207 68.1293H25.8075ZM27.9397 68.5517C27.9397 68.8534 27.8793 69.0747 27.7988 69.1954C27.7184 69.3161 27.5575 69.3966 27.3563 69.3966C27.3362 69.3966 27.296 69.3966 27.2155 69.3764V69.9598C27.2759 69.9799 27.3563 69.9799 27.4368 69.9799C27.8592 69.9799 28.1609 69.8592 28.342 69.6379C28.523 69.3966 28.6236 69.0345 28.6437 68.5316L28.7644 64.5891H29.9109V69.9799H30.5747V63.9856H28.1408L27.9397 68.5517ZM33.3103 68.773L32.4253 63.9856H31.4598V69.9799H32.0431V64.9713L32.9885 69.9799H33.5517L34.4971 64.9713V69.9799H35.1408V63.9856H34.1954L33.3103 68.773ZM37.8161 63.9856L38.9425 69.9799H38.2586L38.0374 68.6925H36.6494L36.4282 69.9799H35.8046L36.9109 63.9856H37.8161ZM37.9368 68.1293L37.3333 64.75L36.75 68.1293H37.9368ZM38.8621 64.5891H39.9282V69.9799H40.592V64.5891H41.658V63.9856H38.8621V64.5891ZM44.9569 67.8276V68.5316C44.9569 69.4971 44.5144 69.9799 43.6092 69.9799H42.3017V63.9856H42.9655V66.3793H43.6092C44.4943 66.3793 44.9569 66.8621 44.9569 67.8276ZM44.273 67.7874C44.273 67.5057 44.2126 67.2845 44.1121 67.1638C44.0115 67.0431 43.8305 66.9828 43.5891 66.9828H42.9454V69.3764H43.5891C43.8305 69.3764 44.0115 69.3161 44.1121 69.1954C44.2126 69.0747 44.273 68.8736 44.273 68.5718V67.7874ZM45.5805 69.9799H46.2443V63.9856H45.5805V69.9799ZM11.9684 67.2241H19.954V66.7615H11.9684V67.2241ZM49.6638 67.2241H57.6494V66.7615H49.6638V67.2241Z" fill="white"/>
</g>
<defs>
<linearGradient id="paint0_linear_264_57" x1="34.9573" y1="32.6617" x2="34.9573" y2="0.0460197" gradientUnits="userSpaceOnUse">
<stop stop-color="#1EC15C"/>
<stop offset="1" stop-color="#1EA74E"/>
</linearGradient>
<clipPath id="clip0_264_57">
<rect width="69.9195" height="70" fill="white"/>
</clipPath>
</defs>
</svg>
