<svg width="24" height="24" viewBox="0 0 24 24" fill="none" xmlns="http://www.w3.org/2000/svg">
<path d="M9.23077 18.4615C11.4425 18.4615 13.4474 17.6474 15.0406 16.3458L22.1538 23.4591L23.4591 22.1538L16.3458 15.0406C17.6474 13.4474 18.4615 11.4425 18.4615 9.23077C18.4615 4.14092 14.3206 0 9.23077 0C4.14092 0 0 4.14092 0 9.23077C0 14.3206 4.14092 18.4615 9.23077 18.4615ZM9.23077 1.84615C13.3089 1.84615 16.6154 5.15262 16.6154 9.23077C16.6154 13.3089 13.3089 16.6154 9.23077 16.6154C5.15262 16.6154 1.84615 13.3089 1.84615 9.23077C1.84615 5.15262 5.15262 1.84615 9.23077 1.84615Z" fill="black"/>
</svg>
