<svg width="30" height="30" viewBox="0 0 30 30" fill="none" xmlns="http://www.w3.org/2000/svg">
<path d="M15 30C23.2843 30 30 23.2843 30 15C30 6.71573 23.2843 0 15 0C6.71573 0 0 6.71573 0 15C0 23.2843 6.71573 30 15 30Z" fill="#3CB9E6"/>
<path d="M14.4375 19.459C13.7168 20.1562 13.0078 20.8477 12.2988 21.5391C12.0527 21.7793 11.7773 21.9141 11.4199 21.8965C11.1797 21.8848 11.0449 21.7793 10.9688 21.5508C10.4297 19.875 9.87891 18.1992 9.33984 16.5176C9.28711 16.3535 9.21094 16.2773 9.04688 16.2246C7.77539 15.8379 6.49805 15.4395 5.23242 15.0352C5.03906 14.9707 4.83984 14.8945 4.66992 14.7773C4.40625 14.6016 4.37109 14.3145 4.60547 14.1035C4.82227 13.9102 5.08008 13.7461 5.34961 13.6406C6.9082 13.0254 8.47266 12.4277 10.0371 11.8242C14.0039 10.2949 17.9707 8.75977 21.9375 7.23047C22.6934 6.9375 23.2734 7.34766 23.1914 8.16797C23.1387 8.68945 23.0039 9.20508 22.8984 9.7207C22.0371 13.7871 21.1758 17.8594 20.3086 21.9258C20.1035 22.8926 19.4238 23.1445 18.6328 22.5586C17.3027 21.5801 15.9727 20.5957 14.6426 19.6113C14.5781 19.5586 14.5137 19.5117 14.4375 19.459ZM11.4492 20.6953C11.4668 20.6895 11.4785 20.6895 11.4961 20.6836C11.502 20.6426 11.5137 20.6074 11.5195 20.5723C11.6074 19.6523 11.6953 18.7266 11.7715 17.8066C11.7891 17.6016 11.8594 17.4551 12.0117 17.3145C13.2363 16.2188 14.4609 15.1113 15.6797 14.0098C17.0332 12.791 18.3867 11.5723 19.7344 10.3477C19.8164 10.2715 19.8516 10.1426 19.9102 10.0371C19.7813 10.0254 19.6465 9.97266 19.5293 10.002C19.3711 10.043 19.2246 10.1367 19.084 10.2246C16.1016 12.1055 13.1133 13.9863 10.1309 15.8672C9.96094 15.9727 9.93164 16.0605 9.9961 16.248C10.2188 16.8809 10.418 17.5195 10.623 18.1582C10.8984 19.002 11.1738 19.8516 11.4492 20.6953Z" fill="white"/>
</svg>
