<svg width="30" height="30" viewBox="0 0 30 30" fill="none" xmlns="http://www.w3.org/2000/svg">
<path fill-rule="evenodd" clip-rule="evenodd" d="M15 0C23.2846 0 30 6.71543 30 15C30 23.2846 23.2846 30 15 30C6.71543 30 0 23.2846 0 15C0 6.71543 6.71543 0 15 0Z" fill="black"/>
<path fill-rule="evenodd" clip-rule="evenodd" d="M18.2387 6.44324C18.2393 6.7116 18.3184 10.5934 22.3913 10.8354C22.3913 11.9546 22.3925 12.7661 22.3925 13.8343C22.0842 13.8518 19.7112 13.6796 18.2341 12.3624L18.2294 18.2007C18.2856 22.253 15.3038 24.7186 11.4055 23.8667C4.68425 21.8563 6.91784 11.8878 13.6667 12.9542C13.6667 16.1727 13.6684 12.9536 13.6684 16.1727C10.8805 15.7626 9.94772 18.0817 10.6889 19.7428C11.3628 21.2546 14.1389 21.5821 15.1075 19.4493C15.2171 19.0321 15.2716 18.5557 15.2716 18.0214V6.42859L18.2387 6.44324Z" fill="white"/>
</svg>
