<svg width="30" height="30" viewBox="0 0 30 30" fill="none" xmlns="http://www.w3.org/2000/svg">
<path d="M15 30C23.2843 30 30 23.2843 30 15C30 6.71573 23.2843 0 15 0C6.71573 0 0 6.71573 0 15C0 23.2843 6.71573 30 15 30Z" fill="#4D76A1"/>
<path fill-rule="evenodd" clip-rule="evenodd" d="M14.4313 21.5801H15.609C15.609 21.5801 15.9664 21.5391 16.1481 21.3457C16.318 21.1641 16.3121 20.8301 16.3121 20.8301C16.3121 20.8301 16.2887 19.2481 17.0211 19.0196C17.7418 18.791 18.6734 20.543 19.6578 21.2227C20.402 21.7325 20.9645 21.6211 20.9645 21.6211L23.5953 21.586C23.5953 21.586 24.9723 21.5039 24.316 20.42C24.2633 20.3321 23.9352 19.6172 22.359 18.1582C20.7125 16.6289 20.9293 16.875 22.9156 14.2266C24.1285 12.6153 24.609 11.6309 24.4566 11.209C24.3102 10.8047 23.4254 10.916 23.4254 10.916L20.4606 10.9336C20.4606 10.9336 20.2438 10.9043 20.0797 10.9981C19.9215 11.0918 19.816 11.3145 19.816 11.3145C19.816 11.3145 19.3473 12.5625 18.7203 13.6231C17.402 15.8614 16.8746 15.9785 16.6578 15.8438C16.1539 15.5157 16.2828 14.543 16.2828 13.8457C16.2828 11.6778 16.6109 10.7696 15.6441 10.5352C15.3219 10.459 15.0875 10.4063 14.2613 10.4004C13.2066 10.3887 12.3102 10.4004 11.8004 10.6524C11.4664 10.8164 11.2027 11.1856 11.3609 11.2032C11.5543 11.2266 11.9996 11.3262 12.234 11.6426C12.5387 12.0528 12.527 12.9844 12.527 12.9844C12.527 12.9844 12.7027 15.5391 12.1168 15.8555C11.7184 16.0723 11.1676 15.627 9.99571 13.5996C9.39219 12.5567 8.94102 11.4082 8.94102 11.4082C8.94102 11.4082 8.85313 11.1914 8.69493 11.0801C8.50157 10.9395 8.2379 10.8985 8.2379 10.8985L5.4254 10.916C5.4254 10.916 5.00352 10.9278 4.84532 11.1094C4.71055 11.2735 4.8336 11.6133 4.8336 11.6133C4.8336 11.6133 7.03673 16.7696 9.53282 19.3653C11.8356 21.7383 14.4313 21.5801 14.4313 21.5801Z" fill="white"/>
</svg>
