<svg width="30" height="30" viewBox="0 0 30 30" fill="none" xmlns="http://www.w3.org/2000/svg">
<path d="M15 30C6.717 30 0 23.283 0 15C0 6.717 6.717 0 15 0C23.283 0 30 6.717 30 15C30 23.283 23.283 30 15 30Z" fill="#25D366"/>
<path fill-rule="evenodd" clip-rule="evenodd" d="M22.0175 8.01602C20.1575 6.15302 17.6795 5.12702 15.0425 5.12402C9.60952 5.12402 5.18452 9.54602 5.18452 14.982C5.18452 16.719 5.63752 18.417 6.50152 19.911L5.10352 25.02L10.3295 23.649C11.7695 24.435 13.3895 24.849 15.0395 24.849H15.0425C20.4755 24.849 24.8975 20.427 24.9005 14.991C24.9035 12.357 23.8805 9.87902 22.0175 8.01602ZM15.0455 23.184H15.0425C13.5725 23.184 12.1295 22.788 10.8725 22.041L10.5725 21.864L7.47052 22.677L8.29852 19.653L8.10352 19.344C7.28452 18.039 6.84952 16.533 6.84952 14.982C6.85252 10.464 10.5275 6.78902 15.0485 6.78902C17.2385 6.78902 19.2935 7.64402 20.8415 9.19202C22.3895 10.74 23.2415 12.801 23.2385 14.988C23.2385 19.509 19.5605 23.184 15.0455 23.184ZM19.5395 17.046C19.2935 16.923 18.0815 16.326 17.8565 16.245C17.6315 16.164 17.4665 16.122 17.3015 16.368C17.1365 16.614 16.6655 17.169 16.5215 17.334C16.3775 17.499 16.2335 17.52 15.9875 17.397C15.7415 17.274 14.9465 17.013 14.0075 16.173C13.2755 15.519 12.7805 14.712 12.6365 14.466C12.4925 14.22 12.6215 14.085 12.7445 13.962C12.8555 13.851 12.9905 13.674 13.1135 13.53C13.2365 13.386 13.2785 13.284 13.3595 13.119C13.4405 12.954 13.4015 12.81 13.3385 12.687C13.2755 12.564 12.7835 11.352 12.5795 10.857C12.3785 10.377 12.1775 10.443 12.0245 10.434C11.8805 10.428 11.7155 10.425 11.5535 10.425C11.3885 10.425 11.1215 10.488 10.8965 10.734C10.6715 10.98 10.0355 11.577 10.0355 12.789C10.0355 14.001 10.9175 15.174 11.0405 15.336C11.1635 15.501 12.7775 17.988 15.2495 19.056C15.8375 19.311 16.2965 19.461 16.6535 19.575C17.2445 19.764 17.7815 19.737 18.2045 19.674C18.6785 19.602 19.6625 19.077 19.8665 18.504C20.0705 17.928 20.0705 17.436 20.0105 17.334C19.9505 17.232 19.7855 17.172 19.5395 17.046Z" fill="white"/>
</svg>
