<svg width="25" height="26" viewBox="0 0 25 26" fill="none" xmlns="http://www.w3.org/2000/svg">
<g clip-path="url(#clip0_264_136)">
<path d="M23.9103 7.13982L19.3612 1.86482L18.462 0.819824H7.71449C6.27199 0.819824 5.10449 1.98816 5.10449 3.43149V6.75149H6.72283L6.72199 4.06732C6.72366 3.25566 7.37616 2.59899 8.18616 2.59899L17.3778 2.59066V6.94482C17.3787 8.56649 18.6895 9.87982 20.312 9.87982H23.4937L23.337 22.4415C23.3353 23.2498 22.6803 23.9015 21.872 23.9073L8.07116 23.9015C7.33283 23.9015 6.73783 23.1757 6.73449 22.2832V21.2215H5.11283V22.8057C5.11283 24.4007 6.18033 25.6948 7.49116 25.6948L22.3445 25.6898C23.7862 25.6898 24.957 24.5157 24.957 23.0773V8.35566L23.9103 7.13982Z" fill="black"/>
<path d="M16.8442 22.0291H0V5.94238H16.8442V22.0291ZM1.61833 20.4107H15.2233V7.56155H1.61833" fill="black"/>
<path d="M14.21 10.7549L11.7483 18.2324H9.70499L8.29832 13.8982L6.82332 18.2324H4.78665L2.48749 10.7549H4.58165L5.92082 15.5874L7.55249 10.7549H9.14499L10.6633 15.5874L12.1192 10.7549H14.21Z" fill="black"/>
</g>
<defs>
<clipPath id="clip0_264_136">
<rect width="25" height="25" fill="white" transform="translate(0 0.819824)"/>
</clipPath>
</defs>
</svg>
