<svg data-v-423bf9ae="" xmlns="http://www.w3.org/2000/svg" viewBox="0 0 525 90" class="iconLeft"><!----><!----><!----><g data-v-423bf9ae="" id="eb50519a-a06e-4745-8488-36b3ceb148da" fill="black" transform="matrix(3.5294117647058822,0,0,3.5294117647058822,149.82722072040335,7.5529408314648805)"><path d="M8.91 4.66C8.61 4.66 3.20 4.57 2.88 4.55L2.84 4.97C2.94 4.96 3.16 4.96 3.45 4.96L3.45 4.96L3.51 4.96C3.64 4.96 3.78 4.96 3.94 4.96L4.07 4.96C4.47 4.99 4.61 5.13 4.61 5.49C4.61 5.68 4.57 5.93 4.51 6.27L3.22 14.18C3.10 14.90 2.63 15.22 2.20 15.22C1.85 15.22 1.52 14.99 1.47 14.58L1.31 14.62C1.44 15.65 2.00 16.00 3.08 16.00C4.63 16.00 5.11 13.78 5.38 12.63L6.36 8.41C6.49 7.84 7.04 5.79 7.14 4.98C7.99 4.99 8.67 5.00 8.85 5.00C10.18 5.00 10.90 5.76 10.90 7.16C10.90 9.88 9.39 11.77 7.53 11.77L5.96 11.67L5.84 12.07L7.46 12.17C10.52 12.17 13.12 10.40 13.12 7.46C13.12 5.64 11.65 4.66 8.91 4.66ZM20.64 9.30C20.48 9.30 19.95 9.38 19.64 10.10C19.30 9.48 18.61 9.15 17.53 9.15C14.92 9.15 13.17 10.83 13.17 13.33C13.17 14.93 14.38 16.00 16.20 16.00C17.94 16.00 18.75 14.96 19.25 13.92C19.25 15.25 20.02 16.00 20.85 16.00C21.43 16.00 22.05 15.63 22.44 14.85L23.04 13.67L22.93 13.60L22.46 14.51C22.24 14.92 21.84 15.16 21.49 15.16C21.15 15.16 20.86 14.93 20.86 14.43C20.86 14.33 20.88 14.23 20.90 14.11L21.21 12.91C21.38 12.33 21.92 10.04 21.99 9.30ZM19.43 10.31C19.46 10.35 19.46 10.42 19.46 10.49C19.46 10.60 19.45 10.71 19.44 10.77L19.32 12.56C19.31 12.65 19.28 13.00 19.22 13.15C18.81 14.19 18.09 15.53 16.80 15.53C15.80 15.53 15.27 14.98 15.27 13.97C15.27 11.30 16.40 9.52 18.09 9.52C18.56 9.52 19.14 9.75 19.43 10.31ZM28.78 14.77C30.98 17.94 32.21 19.11 33.70 19.11C35.18 19.11 36.16 18.59 36.16 17.81C36.16 17.32 35.73 17.05 34.92 17.05C34.92 17.94 34.36 18.54 33.49 18.54C32.21 18.54 31.34 16.68 30.38 14.75L28.38 10.78C28.88 10.46 29.39 10.30 29.91 10.30C30.50 10.30 31.25 10.60 31.81 10.86C31.97 10.66 32.20 10.17 32.20 9.75C32.20 9.25 31.82 8.98 31.33 8.98C30.26 8.98 29.09 9.63 28.10 10.46C27.47 11.00 26.91 11.62 26.50 12.21L27.54 7.78C27.63 7.29 27.77 6.81 27.77 6.41C27.77 5.85 27.50 5.47 26.43 5.47L25.36 5.47L25.34 5.61L25.35 5.61C25.48 5.61 25.57 5.61 25.57 5.90C25.57 6.09 25.54 6.41 25.44 6.95L23.93 15.64C23.93 15.65 23.93 15.70 23.93 15.71C23.93 15.82 24.40 15.86 24.86 15.86L25.52 15.86C25.57 15.86 25.64 15.84 25.66 15.78L26.30 13.06C26.51 12.71 26.72 12.41 26.94 12.13ZM34.88 5.71C34.88 6.28 35.34 6.77 35.94 6.77C36.51 6.77 37.00 6.31 37.00 5.71C37.00 5.13 36.54 4.65 35.94 4.65C35.37 4.65 34.88 5.11 34.88 5.71ZM37.75 13.67L37.63 13.60L37.16 14.51C36.95 14.92 36.54 15.15 36.20 15.15C35.88 15.15 35.61 14.94 35.61 14.51C35.61 14.39 35.63 14.26 35.67 14.11L36.00 12.91C36.16 12.32 36.75 10.04 36.82 9.30L35.19 9.30C34.44 9.30 33.76 9.45 33.31 10.34L32.92 11.11L33.04 11.17L33.43 10.40C33.65 9.99 33.89 9.73 34.06 9.73C34.18 9.73 34.26 9.86 34.26 10.17C34.26 10.32 34.24 10.49 34.21 10.71L33.88 12.56C33.79 13.04 33.65 13.71 33.65 14.31C33.65 15.39 34.45 15.94 35.32 15.94C36.03 15.94 36.77 15.58 37.15 14.85ZM41.48 16.00C43.53 16.00 45.36 15.22 45.36 13.85C45.36 12.82 44.22 12.35 43.13 11.81C42.23 11.37 41.25 11.19 41.25 10.58C41.25 9.78 41.99 9.50 42.75 9.49C43.83 9.49 44.32 9.93 44.43 11.18C45.01 11.18 45.40 10.86 45.40 10.39C45.40 10.28 45.37 10.16 45.28 10.04C44.72 9.26 43.80 9.16 42.82 9.16C40.77 9.16 39.28 9.83 39.28 11.28C39.28 12.20 40.25 12.78 41.30 13.11C42.42 13.46 43.63 13.75 43.63 14.40C43.63 15.19 42.63 15.66 41.55 15.66C40.28 15.66 39.50 15.06 39.40 13.84L39.39 13.79C38.72 13.79 38.36 14.08 38.36 14.61C38.36 14.72 38.39 14.84 38.48 14.96C39.08 15.82 40.34 16.00 41.48 16.00ZM47.79 9.65L47.34 12.56C47.27 13.03 47.15 13.67 47.15 14.27C47.15 15.39 48.00 15.96 48.90 15.96C49.62 15.96 50.37 15.59 50.76 14.85L51.36 13.67L51.24 13.60L50.77 14.51C50.59 14.88 50.05 15.16 49.59 15.16C49.20 15.16 48.86 14.94 48.86 14.40C48.86 14.31 48.88 14.22 48.90 14.11L49.88 9.65L51.97 9.65L51.97 9.30L49.96 9.30L50.54 6.69C50.54 6.69 50.54 6.66 50.54 6.65C50.54 6.63 50.48 6.62 50.39 6.62L49.60 6.62C48.97 6.62 48.16 7.29 48.02 8.13L47.84 9.30L46.46 9.30L46.46 9.65ZM59.76 9.30C59.60 9.30 59.08 9.38 58.76 10.10C58.42 9.48 57.74 9.15 56.66 9.15C54.04 9.15 52.29 10.83 52.29 13.33C52.29 14.93 53.50 16.00 55.32 16.00C57.07 16.00 57.87 14.96 58.37 13.92C58.37 15.25 59.14 16.00 59.97 16.00C60.55 16.00 61.17 15.63 61.56 14.85L62.17 13.67L62.05 13.60L61.58 14.51C61.37 14.92 60.96 15.16 60.61 15.16C60.27 15.16 59.99 14.93 59.99 14.43C59.99 14.33 60.00 14.23 60.02 14.11L60.33 12.91C60.50 12.33 61.04 10.04 61.11 9.30ZM58.55 10.31C58.58 10.35 58.58 10.42 58.58 10.49C58.58 10.60 58.57 10.71 58.56 10.77L58.44 12.56C58.43 12.65 58.40 13.00 58.34 13.15C57.93 14.19 57.21 15.53 55.92 15.53C54.93 15.53 54.39 14.98 54.39 13.97C54.39 11.30 55.52 9.52 57.21 9.52C57.68 9.52 58.26 9.75 58.55 10.31ZM65.07 9.23C64.32 9.23 63.64 9.43 63.19 10.31L62.79 11.08L62.92 11.14L63.31 10.37C63.52 9.97 63.76 9.72 63.93 9.72C64.05 9.72 64.14 9.86 64.14 10.19C64.14 10.32 64.12 10.49 64.09 10.71L63.27 15.56C63.27 15.57 63.26 15.65 63.26 15.65C63.26 15.79 63.73 15.86 64.19 15.86L65.02 15.86C65.06 15.86 65.15 15.83 65.15 15.78L65.88 12.91C65.96 12.59 66.08 12.18 66.18 11.75L67.88 10.34C68.19 10.10 68.56 9.84 68.84 9.84C69.15 9.84 69.23 10.10 69.23 10.45C69.23 10.90 69.08 11.48 69.00 11.87L68.84 12.60C68.73 13.10 68.66 13.60 68.66 14.06C68.66 15.16 69.06 16.02 70.36 16.02C70.91 16.02 71.48 15.67 71.90 14.85L72.54 13.60L72.42 13.53L71.91 14.51C71.70 14.92 71.35 15.14 71.05 15.14C70.79 15.14 70.58 14.96 70.58 14.58C70.58 14.45 70.61 14.29 70.66 14.11L71.03 12.91C71.24 12.22 71.44 11.45 71.44 10.79C71.44 9.87 71.06 9.16 69.79 9.16C69.20 9.16 68.41 9.47 67.66 10.08L66.27 11.22C66.30 11.01 66.32 10.81 66.32 10.61C66.32 9.84 66.04 9.23 65.07 9.23ZM82.10 14.58L81.94 14.62C82.07 15.60 82.65 16.00 83.57 16.00C85.31 16.00 85.75 13.84 86.01 12.63L87.01 8.27C87.14 7.69 87.73 5.54 87.80 4.78C88.25 4.78 88.57 4.78 88.66 4.78C89.41 4.78 90.47 4.82 91.58 4.82C93.70 4.82 96.05 4.66 97.00 3.74C97.24 3.48 97.34 3.25 97.34 3.04C97.34 2.48 96.86 2.11 96.15 2.11C95.20 4.08 92.52 4.44 88.75 4.44C86.24 4.44 80.83 4.35 80.52 4.34L80.46 4.83C80.77 4.81 82.77 4.79 84.72 4.79C85.13 4.83 85.26 4.97 85.26 5.34C85.26 5.54 85.22 5.80 85.17 6.13L83.85 14.18C83.73 14.90 83.25 15.22 82.83 15.22C82.48 15.22 82.15 14.99 82.10 14.58ZM91.25 15.65C90.34 15.65 89.92 15.22 89.92 14.12C89.92 11.81 91.01 9.50 92.44 9.50C93.28 9.50 93.73 10.11 93.73 11.27C93.73 13.78 92.67 15.65 91.25 15.65ZM92.51 9.15C89.87 9.15 87.88 10.58 87.88 13.28C87.88 14.94 89.12 16.00 91.18 16.00C93.75 16.00 95.83 14.36 95.83 11.70C95.83 10.04 94.69 9.15 92.51 9.15ZM99.47 14.72L99.62 14.06L99.95 12.66C99.99 12.50 100.02 12.30 100.06 12.10C100.47 11.06 101.20 9.69 102.47 9.69C103.39 9.69 104.00 10.32 104.00 11.26C104.00 13.88 102.87 15.63 101.19 15.63C100.59 15.63 100.13 15.31 99.86 14.90L99.76 15.29C100.15 15.76 100.80 16.00 101.74 16.00C104.36 16.00 106.12 14.40 106.12 11.89C106.12 10.27 104.97 9.23 103.07 9.23C101.47 9.23 100.66 10.10 100.15 11.05C100.15 10.14 99.85 9.30 98.81 9.30C98.06 9.30 97.59 9.50 97.13 10.38L96.85 10.92L96.97 11.00L97.12 10.71C97.32 10.33 97.64 9.88 97.84 9.88C97.97 9.88 98.05 10.04 98.05 10.43C98.05 10.55 98.02 10.96 97.99 11.12L97.11 16.35C96.92 17.51 96.82 18.09 96.82 18.38C96.82 18.61 96.89 18.66 97.00 18.66L98.60 18.66C98.68 18.14 98.75 17.83 98.90 17.19Z"></path></g><!----><g data-v-423bf9ae="" id="9a4c0cc3-0ab6-4ad8-ab91-44f18f5a669a" transform="matrix(1.3445076260319184,0,0,1.3445076260319184,-0.5471514295664974,-20.384654234304662)" stroke="none" fill="black"><path d="M51.181 15.63l-.017 5.075c.771.208 16.96 3.594 19.956 4.181l29.036 1.003c-5.067-.96-44.396-9.2-48.975-10.259zM49.808 15.741C43.947 17.073 9.21 24.443 2.307 25.819l28.919-1.02c3.865-.787 16.222-3.413 18.558-3.945l.024-5.113zM30.489 26l-28.323.973c3.523 2.934 14.355 12.502 17.303 15.287l17.743-10.33c-1.315-1.223-4.942-4.411-6.723-5.93zM71.221 26c-1.993 1.738-6.162 5.516-6.862 6.235l17.797 10.37c1.989-2.012 13.508-12.417 17.279-15.633L71.221 26z"></path><path d="M95.938 29.313c-.02.006-.089.089-.182.211.134-.132.211-.22.182-.211zM100.934 27.263c-1.97 1.941-18.402 16.465-18.449 16.519.004.077-.024 10.866-.039 11.185-.014.303 16.477-25.077 18.488-27.704zM5.95 29.897c-.027-.009.038.067.162.19-.082-.107-.143-.184-.162-.19zM.934 27.891c1.915 2.474 18.518 28.039 18.503 27.734-.015-.318-.043-11.115-.039-11.192-.046-.054-16.576-14.671-18.464-16.542zM50.953 32.4c-5.821.005-10.891.013-12.205.032L20.591 43.037c1.566-.093 52.224-.145 59.729-.07l-18.103-10.55c-2.093-.012-6.196-.021-11.264-.017zM50.231 43.868c-5.473 0-25.584.072-29.469.024 0 .154-.014 11.313-.023 11.122.636-.311 29.931-11.313 29.492-11.146zM52.271 43.868c-.438-.167 27.829 10.835 28.464 11.146-.01.191-.022-10.968-.022-11.122-3.885.048-22.969-.024-28.442-.024zM50.208 45.578c-2.63.596-28.041 9.925-28.025 10.244s28.225 8.35 28.12 8.298c-.001 0-.095-15.141-.095-18.542zM20.63 56.606c-.009.003.047.019.125.047-.069-.037-.111-.052-.125-.047zM20.771 56.661c2.221 1.201 29.766 21.56 29.343 21.397 0-1.501.118-11.485.118-12.645-.001.001-27.417-8.027-29.461-8.752zM81.929 56.708c-.016-.005-.063.011-.134.048.084-.028.143-.045.134-.048zM81.778 56.764c-2.155.721-30.668 8.65-30.668 8.65 0 1.159.117 11.144.117 12.645-.422.162 28.255-20.101 30.551-21.295z"></path><path d="M39.564 72.168c.937 1.373 10.732 9.831 11.264 10.401.437-.168 9.094-8.594 9.961-10.283-2.541 1.812-9.729 7.124-10.182 6.973-.225-.075-8.983-5.803-11.043-7.091z"></path></g><!----></svg>